<svg xmlns="http://www.w3.org/2000/svg" viewBox="0 0 128 128" width="256" height="256" shape-rendering="crispEdges" role="img" aria-label="Kacper Hajdamowicz, pixel-art portrait">
<path fill="#6B5900" d="M7 1h114v1h-114zM5 2h2v1h-2zM121 2h2v1h-2zM3 3h2v1h-2zM62 3h1v1h-1zM66 3h1v1h-1zM123 3h2v1h-2zM3 4h1v1h-1zM7 4h56v1h-56zM66 4h55v1h-55zM124 4h1v1h-1zM2 5h1v1h-1zM6 5h2v1h-2zM64 5h1v1h-1zM120 5h2v1h-2zM125 5h1v1h-1zM2 6h1v1h-1zM5 6h1v1h-1zM122 6h1v1h-1zM125 6h1v1h-1zM1 7h1v1h-1zM4 7h2v1h-2zM10 7h108v1h-108zM122 7h2v1h-2zM126 7h1v1h-1zM1 8h1v1h-1zM4 8h1v1h-1zM8 8h2v1h-2zM118 8h2v1h-2zM123 8h1v1h-1zM126 8h1v1h-1zM1 9h1v1h-1zM4 9h1v1h-1zM8 9h1v1h-1zM119 9h1v1h-1zM123 9h1v1h-1zM126 9h1v1h-1zM1 10h1v1h-1zM4 10h1v1h-1zM7 10h1v1h-1zM12 10h3v1h-3zM30 10h1v1h-1zM32 10h1v1h-1zM95 10h1v1h-1zM97 10h1v1h-1zM113 10h3v1h-3zM120 10h1v1h-1zM123 10h1v1h-1zM126 10h1v1h-1zM1 11h1v1h-1zM4 11h1v1h-1zM7 11h1v1h-1zM11 11h1v1h-1zM13 11h1v1h-1zM15 11h1v1h-1zM30 11h1v1h-1zM32 11h1v1h-1zM95 11h1v1h-1zM97 11h1v1h-1zM112 11h1v1h-1zM114 11h1v1h-1zM116 11h1v1h-1zM120 11h1v1h-1zM123 11h1v1h-1zM126 11h1v1h-1zM1 12h1v1h-1zM4 12h1v1h-1zM7 12h1v1h-1zM10 12h1v1h-1zM16 12h15v1h-15zM32 12h1v1h-1zM95 12h1v1h-1zM97 12h15v1h-15zM117 12h1v1h-1zM120 12h1v1h-1zM123 12h1v1h-1zM126 12h1v1h-1zM1 13h1v1h-1zM4 13h1v1h-1zM7 13h1v1h-1zM10 13h2v1h-2zM15 13h2v1h-2zM32 13h1v1h-1zM95 13h1v1h-1zM111 13h2v1h-2zM116 13h2v1h-2zM120 13h1v1h-1zM123 13h1v1h-1zM126 13h1v1h-1zM1 14h1v1h-1zM4 14h1v1h-1zM7 14h1v1h-1zM10 14h1v1h-1zM16 14h15v1h-15zM32 14h1v1h-1zM95 14h1v1h-1zM97 14h15v1h-15zM117 14h1v1h-1zM120 14h1v1h-1zM123 14h1v1h-1zM126 14h1v1h-1zM1 15h1v1h-1zM4 15h1v1h-1zM7 15h1v1h-1zM11 15h1v1h-1zM13 15h1v1h-1zM15 15h1v1h-1zM30 15h1v1h-1zM32 15h1v1h-1zM95 15h1v1h-1zM97 15h1v1h-1zM112 15h1v1h-1zM114 15h1v1h-1zM116 15h1v1h-1zM120 15h1v1h-1zM123 15h1v1h-1zM126 15h1v1h-1zM1 16h1v1h-1zM4 16h1v1h-1zM7 16h1v1h-1zM12 16h3v1h-3zM30 16h1v1h-1zM32 16h1v1h-1zM95 16h1v1h-1zM97 16h1v1h-1zM113 16h3v1h-3zM120 16h1v1h-1zM123 16h1v1h-1zM126 16h1v1h-1zM1 17h1v1h-1zM4 17h1v1h-1zM7 17h1v1h-1zM12 17h1v1h-1zM14 17h1v1h-1zM113 17h1v1h-1zM115 17h1v1h-1zM120 17h1v1h-1zM123 17h1v1h-1zM126 17h1v1h-1zM1 18h1v1h-1zM4 18h1v1h-1zM7 18h1v1h-1zM12 18h1v1h-1zM14 18h1v1h-1zM113 18h1v1h-1zM115 18h1v1h-1zM120 18h1v1h-1zM123 18h1v1h-1zM126 18h1v1h-1zM1 19h1v1h-1zM4 19h1v1h-1zM7 19h1v1h-1zM12 19h1v1h-1zM14 19h1v1h-1zM113 19h1v1h-1zM115 19h1v1h-1zM120 19h1v1h-1zM123 19h1v1h-1zM126 19h1v1h-1zM1 20h1v1h-1zM4 20h1v1h-1zM7 20h1v1h-1zM12 20h1v1h-1zM14 20h1v1h-1zM113 20h1v1h-1zM115 20h1v1h-1zM120 20h1v1h-1zM123 20h1v1h-1zM126 20h1v1h-1zM1 21h1v1h-1zM4 21h1v1h-1zM7 21h1v1h-1zM12 21h1v1h-1zM14 21h1v1h-1zM113 21h1v1h-1zM115 21h1v1h-1zM120 21h1v1h-1zM123 21h1v1h-1zM126 21h1v1h-1zM1 22h1v1h-1zM4 22h1v1h-1zM7 22h1v1h-1zM12 22h1v1h-1zM14 22h1v1h-1zM113 22h1v1h-1zM115 22h1v1h-1zM120 22h1v1h-1zM123 22h1v1h-1zM126 22h1v1h-1zM1 23h1v1h-1zM4 23h1v1h-1zM7 23h1v1h-1zM12 23h1v1h-1zM14 23h1v1h-1zM113 23h1v1h-1zM115 23h1v1h-1zM120 23h1v1h-1zM123 23h1v1h-1zM126 23h1v1h-1zM1 24h1v1h-1zM4 24h1v1h-1zM7 24h1v1h-1zM12 24h1v1h-1zM14 24h1v1h-1zM113 24h1v1h-1zM115 24h1v1h-1zM120 24h1v1h-1zM123 24h1v1h-1zM126 24h1v1h-1zM1 25h1v1h-1zM4 25h1v1h-1zM7 25h1v1h-1zM12 25h1v1h-1zM14 25h1v1h-1zM113 25h1v1h-1zM115 25h1v1h-1zM120 25h1v1h-1zM123 25h1v1h-1zM126 25h1v1h-1zM1 26h1v1h-1zM4 26h1v1h-1zM7 26h1v1h-1zM12 26h1v1h-1zM14 26h1v1h-1zM113 26h1v1h-1zM115 26h1v1h-1zM120 26h1v1h-1zM123 26h1v1h-1zM126 26h1v1h-1zM1 27h1v1h-1zM4 27h1v1h-1zM7 27h1v1h-1zM12 27h1v1h-1zM14 27h1v1h-1zM113 27h1v1h-1zM115 27h1v1h-1zM120 27h1v1h-1zM123 27h1v1h-1zM126 27h1v1h-1zM1 28h1v1h-1zM4 28h1v1h-1zM7 28h1v1h-1zM12 28h1v1h-1zM14 28h1v1h-1zM113 28h1v1h-1zM115 28h1v1h-1zM120 28h1v1h-1zM123 28h1v1h-1zM126 28h1v1h-1zM1 29h1v1h-1zM4 29h1v1h-1zM7 29h1v1h-1zM12 29h1v1h-1zM14 29h1v1h-1zM113 29h1v1h-1zM115 29h1v1h-1zM120 29h1v1h-1zM123 29h1v1h-1zM126 29h1v1h-1zM1 30h1v1h-1zM4 30h1v1h-1zM7 30h1v1h-1zM10 30h3v1h-3zM14 30h3v1h-3zM111 30h3v1h-3zM115 30h3v1h-3zM120 30h1v1h-1zM123 30h1v1h-1zM126 30h1v1h-1zM1 31h1v1h-1zM4 31h1v1h-1zM7 31h1v1h-1zM120 31h1v1h-1zM123 31h1v1h-1zM126 31h1v1h-1zM1 32h1v1h-1zM4 32h1v1h-1zM7 32h1v1h-1zM10 32h7v1h-7zM111 32h7v1h-7zM120 32h1v1h-1zM123 32h1v1h-1zM126 32h1v1h-1zM1 33h1v1h-1zM4 33h1v1h-1zM7 33h1v1h-1zM120 33h1v1h-1zM123 33h1v1h-1zM126 33h1v1h-1zM1 34h1v1h-1zM4 34h1v1h-1zM7 34h1v1h-1zM120 34h1v1h-1zM123 34h1v1h-1zM126 34h1v1h-1zM1 35h1v1h-1zM4 35h1v1h-1zM7 35h1v1h-1zM120 35h1v1h-1zM123 35h1v1h-1zM126 35h1v1h-1zM1 36h1v1h-1zM4 36h1v1h-1zM7 36h1v1h-1zM120 36h1v1h-1zM123 36h1v1h-1zM126 36h1v1h-1zM1 37h1v1h-1zM4 37h1v1h-1zM7 37h1v1h-1zM120 37h1v1h-1zM123 37h1v1h-1zM126 37h1v1h-1zM1 38h1v1h-1zM4 38h1v1h-1zM7 38h1v1h-1zM120 38h1v1h-1zM123 38h1v1h-1zM126 38h1v1h-1zM1 39h1v1h-1zM4 39h1v1h-1zM7 39h1v1h-1zM120 39h1v1h-1zM123 39h1v1h-1zM126 39h1v1h-1zM1 40h1v1h-1zM4 40h1v1h-1zM7 40h1v1h-1zM120 40h1v1h-1zM123 40h1v1h-1zM126 40h1v1h-1zM1 41h1v1h-1zM4 41h1v1h-1zM7 41h1v1h-1zM120 41h1v1h-1zM123 41h1v1h-1zM126 41h1v1h-1zM1 42h1v1h-1zM4 42h1v1h-1zM7 42h1v1h-1zM120 42h1v1h-1zM123 42h1v1h-1zM126 42h1v1h-1zM1 43h1v1h-1zM4 43h1v1h-1zM7 43h1v1h-1zM120 43h1v1h-1zM123 43h1v1h-1zM126 43h1v1h-1zM1 44h1v1h-1zM4 44h1v1h-1zM7 44h1v1h-1zM120 44h1v1h-1zM123 44h1v1h-1zM126 44h1v1h-1zM1 45h1v1h-1zM4 45h1v1h-1zM7 45h1v1h-1zM120 45h1v1h-1zM123 45h1v1h-1zM126 45h1v1h-1zM1 46h1v1h-1zM4 46h1v1h-1zM7 46h1v1h-1zM120 46h1v1h-1zM123 46h1v1h-1zM126 46h1v1h-1zM1 47h1v1h-1zM4 47h1v1h-1zM7 47h1v1h-1zM120 47h1v1h-1zM123 47h1v1h-1zM126 47h1v1h-1zM1 48h1v1h-1zM4 48h1v1h-1zM7 48h1v1h-1zM120 48h1v1h-1zM123 48h1v1h-1zM126 48h1v1h-1zM1 49h1v1h-1zM4 49h1v1h-1zM7 49h1v1h-1zM120 49h1v1h-1zM123 49h1v1h-1zM126 49h1v1h-1zM1 50h1v1h-1zM4 50h1v1h-1zM7 50h1v1h-1zM120 50h1v1h-1zM123 50h1v1h-1zM126 50h1v1h-1zM1 51h1v1h-1zM4 51h1v1h-1zM7 51h1v1h-1zM120 51h1v1h-1zM123 51h1v1h-1zM126 51h1v1h-1zM1 52h1v1h-1zM4 52h1v1h-1zM7 52h1v1h-1zM120 52h1v1h-1zM123 52h1v1h-1zM126 52h1v1h-1zM1 53h1v1h-1zM4 53h1v1h-1zM7 53h1v1h-1zM120 53h1v1h-1zM123 53h1v1h-1zM126 53h1v1h-1zM1 54h1v1h-1zM4 54h1v1h-1zM7 54h1v1h-1zM120 54h1v1h-1zM123 54h1v1h-1zM126 54h1v1h-1zM1 55h1v1h-1zM4 55h1v1h-1zM7 55h1v1h-1zM120 55h1v1h-1zM123 55h1v1h-1zM126 55h1v1h-1zM1 56h1v1h-1zM4 56h1v1h-1zM7 56h1v1h-1zM120 56h1v1h-1zM123 56h1v1h-1zM126 56h1v1h-1zM1 57h1v1h-1zM4 57h1v1h-1zM7 57h1v1h-1zM120 57h1v1h-1zM123 57h1v1h-1zM126 57h1v1h-1zM1 58h1v1h-1zM4 58h1v1h-1zM7 58h1v1h-1zM120 58h1v1h-1zM123 58h1v1h-1zM126 58h1v1h-1zM1 59h1v1h-1zM4 59h1v1h-1zM7 59h1v1h-1zM120 59h1v1h-1zM123 59h1v1h-1zM126 59h1v1h-1zM1 60h1v1h-1zM4 60h1v1h-1zM7 60h1v1h-1zM120 60h1v1h-1zM123 60h1v1h-1zM126 60h1v1h-1zM1 61h1v1h-1zM4 61h1v1h-1zM7 61h1v1h-1zM120 61h1v1h-1zM123 61h1v1h-1zM126 61h1v1h-1zM1 62h1v1h-1zM3 62h2v1h-2zM7 62h1v1h-1zM120 62h1v1h-1zM123 62h2v1h-2zM126 62h1v1h-1zM1 63h1v1h-1zM7 63h1v1h-1zM120 63h1v1h-1zM126 63h1v1h-1zM1 64h1v1h-1zM5 64h1v1h-1zM7 64h1v1h-1zM120 64h1v1h-1zM122 64h1v1h-1zM126 64h1v1h-1zM1 65h1v1h-1zM7 65h1v1h-1zM120 65h1v1h-1zM126 65h1v1h-1zM1 66h1v1h-1zM3 66h2v1h-2zM7 66h1v1h-1zM120 66h1v1h-1zM123 66h2v1h-2zM126 66h1v1h-1zM1 67h1v1h-1zM4 67h1v1h-1zM7 67h1v1h-1zM120 67h1v1h-1zM123 67h1v1h-1zM126 67h1v1h-1zM1 68h1v1h-1zM4 68h1v1h-1zM7 68h1v1h-1zM120 68h1v1h-1zM123 68h1v1h-1zM126 68h1v1h-1zM1 69h1v1h-1zM4 69h1v1h-1zM7 69h1v1h-1zM120 69h1v1h-1zM123 69h1v1h-1zM126 69h1v1h-1zM1 70h1v1h-1zM4 70h1v1h-1zM7 70h1v1h-1zM120 70h1v1h-1zM123 70h1v1h-1zM126 70h1v1h-1zM1 71h1v1h-1zM4 71h1v1h-1zM7 71h1v1h-1zM120 71h1v1h-1zM123 71h1v1h-1zM126 71h1v1h-1zM1 72h1v1h-1zM4 72h1v1h-1zM7 72h1v1h-1zM120 72h1v1h-1zM123 72h1v1h-1zM126 72h1v1h-1zM1 73h1v1h-1zM4 73h1v1h-1zM7 73h1v1h-1zM120 73h1v1h-1zM123 73h1v1h-1zM126 73h1v1h-1zM1 74h1v1h-1zM4 74h1v1h-1zM7 74h1v1h-1zM120 74h1v1h-1zM123 74h1v1h-1zM126 74h1v1h-1zM1 75h1v1h-1zM4 75h1v1h-1zM7 75h1v1h-1zM120 75h1v1h-1zM123 75h1v1h-1zM126 75h1v1h-1zM1 76h1v1h-1zM4 76h1v1h-1zM7 76h1v1h-1zM120 76h1v1h-1zM123 76h1v1h-1zM126 76h1v1h-1zM1 77h1v1h-1zM4 77h1v1h-1zM7 77h1v1h-1zM120 77h1v1h-1zM123 77h1v1h-1zM126 77h1v1h-1zM1 78h1v1h-1zM4 78h1v1h-1zM7 78h1v1h-1zM120 78h1v1h-1zM123 78h1v1h-1zM126 78h1v1h-1zM1 79h1v1h-1zM4 79h1v1h-1zM7 79h1v1h-1zM120 79h1v1h-1zM123 79h1v1h-1zM126 79h1v1h-1zM1 80h1v1h-1zM4 80h1v1h-1zM7 80h1v1h-1zM120 80h1v1h-1zM123 80h1v1h-1zM126 80h1v1h-1zM1 81h1v1h-1zM4 81h1v1h-1zM7 81h1v1h-1zM120 81h1v1h-1zM123 81h1v1h-1zM126 81h1v1h-1zM1 82h1v1h-1zM4 82h1v1h-1zM7 82h1v1h-1zM120 82h1v1h-1zM123 82h1v1h-1zM126 82h1v1h-1zM1 83h1v1h-1zM4 83h1v1h-1zM7 83h1v1h-1zM120 83h1v1h-1zM123 83h1v1h-1zM126 83h1v1h-1zM1 84h1v1h-1zM4 84h1v1h-1zM7 84h1v1h-1zM120 84h1v1h-1zM123 84h1v1h-1zM126 84h1v1h-1zM1 85h1v1h-1zM4 85h1v1h-1zM7 85h1v1h-1zM120 85h1v1h-1zM123 85h1v1h-1zM126 85h1v1h-1zM1 86h1v1h-1zM4 86h1v1h-1zM7 86h1v1h-1zM120 86h1v1h-1zM123 86h1v1h-1zM126 86h1v1h-1zM1 87h1v1h-1zM4 87h1v1h-1zM7 87h1v1h-1zM120 87h1v1h-1zM123 87h1v1h-1zM126 87h1v1h-1zM1 88h1v1h-1zM4 88h1v1h-1zM7 88h1v1h-1zM120 88h1v1h-1zM123 88h1v1h-1zM126 88h1v1h-1zM1 89h1v1h-1zM4 89h1v1h-1zM7 89h1v1h-1zM120 89h1v1h-1zM123 89h1v1h-1zM126 89h1v1h-1zM1 90h1v1h-1zM4 90h1v1h-1zM7 90h1v1h-1zM120 90h1v1h-1zM123 90h1v1h-1zM126 90h1v1h-1zM1 91h1v1h-1zM4 91h1v1h-1zM7 91h1v1h-1zM120 91h1v1h-1zM123 91h1v1h-1zM126 91h1v1h-1zM1 92h1v1h-1zM4 92h1v1h-1zM7 92h1v1h-1zM120 92h1v1h-1zM123 92h1v1h-1zM126 92h1v1h-1zM1 93h1v1h-1zM4 93h1v1h-1zM7 93h1v1h-1zM120 93h1v1h-1zM123 93h1v1h-1zM126 93h1v1h-1zM1 94h1v1h-1zM4 94h1v1h-1zM7 94h1v1h-1zM120 94h1v1h-1zM123 94h1v1h-1zM126 94h1v1h-1zM1 95h1v1h-1zM4 95h1v1h-1zM7 95h1v1h-1zM10 95h7v1h-7zM111 95h7v1h-7zM120 95h1v1h-1zM123 95h1v1h-1zM126 95h1v1h-1zM1 96h1v1h-1zM4 96h1v1h-1zM7 96h1v1h-1zM120 96h1v1h-1zM123 96h1v1h-1zM126 96h1v1h-1zM1 97h1v1h-1zM4 97h1v1h-1zM7 97h1v1h-1zM10 97h3v1h-3zM14 97h3v1h-3zM111 97h3v1h-3zM115 97h3v1h-3zM120 97h1v1h-1zM123 97h1v1h-1zM126 97h1v1h-1zM1 98h1v1h-1zM4 98h1v1h-1zM7 98h1v1h-1zM12 98h1v1h-1zM14 98h1v1h-1zM113 98h1v1h-1zM115 98h1v1h-1zM120 98h1v1h-1zM123 98h1v1h-1zM126 98h1v1h-1zM1 99h1v1h-1zM4 99h1v1h-1zM7 99h1v1h-1zM12 99h1v1h-1zM14 99h1v1h-1zM113 99h1v1h-1zM115 99h1v1h-1zM120 99h1v1h-1zM123 99h1v1h-1zM126 99h1v1h-1zM1 100h1v1h-1zM4 100h1v1h-1zM7 100h1v1h-1zM12 100h1v1h-1zM14 100h1v1h-1zM113 100h1v1h-1zM115 100h1v1h-1zM120 100h1v1h-1zM123 100h1v1h-1zM126 100h1v1h-1zM1 101h1v1h-1zM4 101h1v1h-1zM7 101h1v1h-1zM12 101h1v1h-1zM14 101h1v1h-1zM113 101h1v1h-1zM115 101h1v1h-1zM120 101h1v1h-1zM123 101h1v1h-1zM126 101h1v1h-1zM1 102h1v1h-1zM4 102h1v1h-1zM7 102h1v1h-1zM12 102h1v1h-1zM14 102h1v1h-1zM113 102h1v1h-1zM115 102h1v1h-1zM120 102h1v1h-1zM123 102h1v1h-1zM126 102h1v1h-1zM1 103h1v1h-1zM4 103h1v1h-1zM7 103h1v1h-1zM12 103h1v1h-1zM14 103h1v1h-1zM113 103h1v1h-1zM115 103h1v1h-1zM120 103h1v1h-1zM123 103h1v1h-1zM126 103h1v1h-1zM1 104h1v1h-1zM4 104h1v1h-1zM7 104h1v1h-1zM12 104h1v1h-1zM14 104h1v1h-1zM113 104h1v1h-1zM115 104h1v1h-1zM120 104h1v1h-1zM123 104h1v1h-1zM126 104h1v1h-1zM1 105h1v1h-1zM4 105h1v1h-1zM7 105h1v1h-1zM12 105h1v1h-1zM14 105h1v1h-1zM113 105h1v1h-1zM115 105h1v1h-1zM120 105h1v1h-1zM123 105h1v1h-1zM126 105h1v1h-1zM1 106h1v1h-1zM4 106h1v1h-1zM7 106h1v1h-1zM12 106h1v1h-1zM14 106h1v1h-1zM113 106h1v1h-1zM115 106h1v1h-1zM120 106h1v1h-1zM123 106h1v1h-1zM126 106h1v1h-1zM1 107h1v1h-1zM4 107h1v1h-1zM7 107h1v1h-1zM12 107h1v1h-1zM14 107h1v1h-1zM113 107h1v1h-1zM115 107h1v1h-1zM120 107h1v1h-1zM123 107h1v1h-1zM126 107h1v1h-1zM1 108h1v1h-1zM4 108h1v1h-1zM7 108h1v1h-1zM12 108h1v1h-1zM14 108h1v1h-1zM113 108h1v1h-1zM115 108h1v1h-1zM120 108h1v1h-1zM123 108h1v1h-1zM126 108h1v1h-1zM1 109h1v1h-1zM4 109h1v1h-1zM7 109h1v1h-1zM12 109h1v1h-1zM14 109h1v1h-1zM113 109h1v1h-1zM115 109h1v1h-1zM120 109h1v1h-1zM123 109h1v1h-1zM126 109h1v1h-1zM1 110h1v1h-1zM4 110h1v1h-1zM7 110h1v1h-1zM12 110h1v1h-1zM14 110h1v1h-1zM113 110h1v1h-1zM115 110h1v1h-1zM120 110h1v1h-1zM123 110h1v1h-1zM126 110h1v1h-1zM1 111h1v1h-1zM4 111h1v1h-1zM7 111h1v1h-1zM12 111h3v1h-3zM30 111h1v1h-1zM32 111h1v1h-1zM95 111h1v1h-1zM97 111h1v1h-1zM113 111h3v1h-3zM120 111h1v1h-1zM123 111h1v1h-1zM126 111h1v1h-1zM1 112h1v1h-1zM4 112h1v1h-1zM7 112h1v1h-1zM11 112h1v1h-1zM13 112h1v1h-1zM15 112h1v1h-1zM30 112h1v1h-1zM32 112h1v1h-1zM95 112h1v1h-1zM97 112h1v1h-1zM112 112h1v1h-1zM114 112h1v1h-1zM116 112h1v1h-1zM120 112h1v1h-1zM123 112h1v1h-1zM126 112h1v1h-1zM1 113h1v1h-1zM4 113h1v1h-1zM7 113h1v1h-1zM10 113h1v1h-1zM16 113h15v1h-15zM32 113h1v1h-1zM95 113h1v1h-1zM97 113h15v1h-15zM117 113h1v1h-1zM120 113h1v1h-1zM123 113h1v1h-1zM126 113h1v1h-1zM1 114h1v1h-1zM4 114h1v1h-1zM7 114h1v1h-1zM10 114h2v1h-2zM15 114h2v1h-2zM32 114h1v1h-1zM95 114h1v1h-1zM111 114h2v1h-2zM116 114h2v1h-2zM120 114h1v1h-1zM123 114h1v1h-1zM126 114h1v1h-1zM1 115h1v1h-1zM4 115h1v1h-1zM7 115h1v1h-1zM10 115h1v1h-1zM16 115h15v1h-15zM32 115h1v1h-1zM95 115h1v1h-1zM97 115h15v1h-15zM117 115h1v1h-1zM120 115h1v1h-1zM123 115h1v1h-1zM126 115h1v1h-1zM1 116h1v1h-1zM4 116h1v1h-1zM7 116h1v1h-1zM11 116h1v1h-1zM13 116h1v1h-1zM15 116h1v1h-1zM30 116h1v1h-1zM32 116h1v1h-1zM95 116h1v1h-1zM97 116h1v1h-1zM112 116h1v1h-1zM114 116h1v1h-1zM116 116h1v1h-1zM120 116h1v1h-1zM123 116h1v1h-1zM126 116h1v1h-1zM1 117h1v1h-1zM4 117h1v1h-1zM7 117h1v1h-1zM12 117h3v1h-3zM30 117h1v1h-1zM32 117h1v1h-1zM95 117h1v1h-1zM97 117h1v1h-1zM113 117h3v1h-3zM120 117h1v1h-1zM123 117h1v1h-1zM126 117h1v1h-1zM1 118h1v1h-1zM4 118h1v1h-1zM8 118h1v1h-1zM119 118h1v1h-1zM123 118h1v1h-1zM126 118h1v1h-1zM1 119h1v1h-1zM4 119h1v1h-1zM8 119h2v1h-2zM118 119h2v1h-2zM123 119h1v1h-1zM126 119h1v1h-1zM1 120h1v1h-1zM4 120h2v1h-2zM10 120h108v1h-108zM122 120h2v1h-2zM126 120h1v1h-1zM2 121h1v1h-1zM5 121h1v1h-1zM122 121h1v1h-1zM125 121h1v1h-1zM2 122h1v1h-1zM6 122h2v1h-2zM64 122h1v1h-1zM120 122h2v1h-2zM125 122h1v1h-1zM3 123h1v1h-1zM7 123h56v1h-56zM66 123h55v1h-55zM124 123h1v1h-1zM3 124h2v1h-2zM62 124h1v1h-1zM66 124h1v1h-1zM123 124h2v1h-2zM5 125h2v1h-2zM121 125h2v1h-2zM7 126h114v1h-114z"/>
<path fill="#39322C" d="M58 12h1v1h-1zM55 14h1v1h-1zM57 15h1v1h-1zM55 17h1v1h-1zM51 20h1v1h-1zM50 21h1v1h-1zM51 22h1v1h-1zM51 23h1v1h-1zM48 25h1v1h-1zM51 25h1v1h-1zM74 25h1v1h-1zM49 27h1v1h-1zM51 27h1v1h-1zM59 27h1v1h-1zM48 28h1v1h-1zM79 30h1v1h-1zM49 31h1v1h-1zM79 31h1v1h-1zM70 46h1v1h-1zM61 48h1v1h-1zM73 48h1v1h-1zM76 53h1v1h-1zM45 54h1v1h-1zM76 54h2v1h-2zM75 55h5v1h-5zM75 56h5v1h-5zM41 57h1v1h-1zM74 57h7v1h-7zM37 58h2v1h-2zM41 58h1v1h-1zM74 58h7v1h-7zM86 58h1v1h-1zM35 59h1v1h-1zM38 59h1v1h-1zM42 59h1v1h-1zM78 59h4v1h-4zM86 59h1v1h-1zM89 59h1v1h-1zM35 60h2v1h-2zM38 60h2v1h-2zM43 60h1v1h-1zM56 60h1v1h-1zM71 60h1v1h-1zM86 60h1v1h-1zM89 60h2v1h-2zM31 61h2v1h-2zM36 61h1v1h-1zM39 61h2v1h-2zM43 61h2v1h-2zM87 61h1v1h-1zM89 61h1v1h-1zM93 61h1v1h-1zM30 62h4v1h-4zM36 62h2v1h-2zM39 62h2v1h-2zM43 62h3v1h-3zM51 62h1v1h-1zM87 62h1v1h-1zM93 62h1v1h-1zM31 63h1v1h-1zM33 63h1v1h-1zM38 63h1v1h-1zM40 63h2v1h-2zM44 63h1v1h-1zM46 63h1v1h-1zM59 63h1v1h-1zM87 63h1v1h-1zM95 63h1v1h-1zM34 64h1v1h-1zM38 64h1v1h-1zM41 64h1v1h-1zM44 64h1v1h-1zM52 64h1v1h-1zM59 64h1v1h-1zM87 64h1v1h-1zM92 64h1v1h-1zM41 65h1v1h-1zM44 65h2v1h-2zM52 65h1v1h-1zM59 65h1v1h-1zM71 65h1v1h-1zM75 65h1v1h-1zM87 65h1v1h-1zM97 65h1v1h-1zM39 66h1v1h-1zM44 66h2v1h-2zM47 66h1v1h-1zM53 66h1v1h-1zM77 66h1v1h-1zM87 66h1v1h-1zM91 66h1v1h-1zM27 67h1v1h-1zM36 67h1v1h-1zM42 67h1v1h-1zM45 67h1v1h-1zM47 67h1v1h-1zM53 67h1v1h-1zM77 67h1v1h-1zM79 67h1v1h-1zM87 67h2v1h-2zM92 67h1v1h-1zM96 67h1v1h-1zM37 68h1v1h-1zM42 68h1v1h-1zM45 68h3v1h-3zM53 68h2v1h-2zM77 68h1v1h-1zM79 68h1v1h-1zM87 68h2v1h-2zM91 68h2v1h-2zM26 69h1v1h-1zM45 69h1v1h-1zM48 69h1v1h-1zM54 69h2v1h-2zM72 69h1v1h-1zM76 69h1v1h-1zM79 69h1v1h-1zM81 69h1v1h-1zM87 69h1v1h-1zM94 69h1v1h-1zM99 69h1v1h-1zM32 70h1v1h-1zM42 70h1v1h-1zM45 70h1v1h-1zM48 70h1v1h-1zM54 70h2v1h-2zM74 70h1v1h-1zM76 70h1v1h-1zM79 70h1v1h-1zM86 70h2v1h-2zM91 70h1v1h-1zM99 70h1v1h-1zM25 71h1v1h-1zM32 71h2v1h-2zM42 71h1v1h-1zM48 71h1v1h-1zM54 71h3v1h-3zM58 71h1v1h-1zM60 71h1v1h-1zM67 71h1v1h-1zM71 71h1v1h-1zM74 71h1v1h-1zM76 71h1v1h-1zM81 71h1v1h-1zM86 71h2v1h-2zM90 71h1v1h-1zM93 71h2v1h-2zM97 71h1v1h-1zM33 72h2v1h-2zM42 72h1v1h-1zM46 72h1v1h-1zM54 72h3v1h-3zM58 72h1v1h-1zM60 72h1v1h-1zM64 72h1v1h-1zM67 72h1v1h-1zM71 72h1v1h-1zM74 72h1v1h-1zM76 72h1v1h-1zM81 72h1v1h-1zM86 72h1v1h-1zM90 72h1v1h-1zM93 72h1v1h-1zM100 72h1v1h-1zM42 73h1v1h-1zM46 73h1v1h-1zM50 73h1v1h-1zM55 73h2v1h-2zM64 73h1v1h-1zM68 73h1v1h-1zM71 73h1v1h-1zM74 73h1v1h-1zM76 73h1v1h-1zM81 73h1v1h-1zM86 73h1v1h-1zM90 73h1v1h-1zM98 73h1v1h-1zM28 74h1v1h-1zM31 74h1v1h-1zM39 74h1v1h-1zM46 74h1v1h-1zM55 74h2v1h-2zM59 74h1v1h-1zM66 74h1v1h-1zM68 74h1v1h-1zM73 74h2v1h-2zM76 74h1v1h-1zM81 74h1v1h-1zM85 74h2v1h-2zM31 75h2v1h-2zM39 75h1v1h-1zM46 75h1v1h-1zM49 75h1v1h-1zM56 75h1v1h-1zM59 75h1v1h-1zM66 75h1v1h-1zM73 75h1v1h-1zM76 75h1v1h-1zM81 75h1v1h-1zM86 75h1v1h-1zM94 75h1v1h-1zM32 76h2v1h-2zM39 76h2v1h-2zM46 76h1v1h-1zM49 76h1v1h-1zM56 76h2v1h-2zM59 76h1v1h-1zM66 76h1v1h-1zM73 76h1v1h-1zM75 76h2v1h-2zM81 76h1v1h-1zM86 76h1v1h-1zM93 76h3v1h-3zM24 77h1v1h-1zM32 77h2v1h-2zM35 77h3v1h-3zM40 77h1v1h-1zM46 77h1v1h-1zM49 77h1v1h-1zM56 77h2v1h-2zM64 77h1v1h-1zM66 77h1v1h-1zM73 77h1v1h-1zM75 77h2v1h-2zM81 77h1v1h-1zM86 77h1v1h-1zM32 78h2v1h-2zM38 78h1v1h-1zM41 78h1v1h-1zM46 78h1v1h-1zM49 78h1v1h-1zM56 78h2v1h-2zM61 78h1v1h-1zM64 78h1v1h-1zM66 78h1v1h-1zM73 78h1v1h-1zM75 78h2v1h-2zM81 78h1v1h-1zM86 78h1v1h-1zM95 78h1v1h-1zM30 79h1v1h-1zM32 79h2v1h-2zM38 79h1v1h-1zM46 79h1v1h-1zM49 79h1v1h-1zM51 79h1v1h-1zM57 79h2v1h-2zM61 79h1v1h-1zM64 79h1v1h-1zM66 79h1v1h-1zM73 79h1v1h-1zM75 79h2v1h-2zM81 79h1v1h-1zM83 79h1v1h-1zM86 79h1v1h-1zM95 79h1v1h-1zM30 80h1v1h-1zM32 80h3v1h-3zM39 80h1v1h-1zM42 80h1v1h-1zM49 80h1v1h-1zM51 80h1v1h-1zM57 80h2v1h-2zM60 80h2v1h-2zM64 80h1v1h-1zM70 80h1v1h-1zM73 80h1v1h-1zM75 80h2v1h-2zM81 80h1v1h-1zM83 80h1v1h-1zM100 80h1v1h-1zM30 81h1v1h-1zM32 81h3v1h-3zM39 81h1v1h-1zM42 81h1v1h-1zM49 81h1v1h-1zM51 81h1v1h-1zM57 81h2v1h-2zM60 81h2v1h-2zM70 81h1v1h-1zM73 81h1v1h-1zM75 81h2v1h-2zM81 81h1v1h-1zM83 81h1v1h-1zM100 81h1v1h-1zM33 82h2v1h-2zM36 82h2v1h-2zM39 82h1v1h-1zM42 82h1v1h-1zM49 82h1v1h-1zM51 82h1v1h-1zM58 82h1v1h-1zM60 82h2v1h-2zM70 82h1v1h-1zM73 82h1v1h-1zM75 82h2v1h-2zM81 82h1v1h-1zM83 82h1v1h-1zM85 82h1v1h-1zM100 82h1v1h-1zM28 83h1v1h-1zM31 83h1v1h-1zM33 83h2v1h-2zM36 83h1v1h-1zM47 83h1v1h-1zM51 83h1v1h-1zM58 83h1v1h-1zM60 83h2v1h-2zM70 83h1v1h-1zM73 83h1v1h-1zM75 83h2v1h-2zM81 83h1v1h-1zM83 83h1v1h-1zM100 83h1v1h-1zM28 84h1v1h-1zM31 84h1v1h-1zM33 84h2v1h-2zM51 84h1v1h-1zM58 84h1v1h-1zM60 84h2v1h-2zM70 84h1v1h-1zM73 84h1v1h-1zM75 84h2v1h-2zM81 84h1v1h-1zM83 84h1v1h-1zM100 84h1v1h-1zM28 85h1v1h-1zM31 85h1v1h-1zM33 85h2v1h-2zM40 85h1v1h-1zM51 85h1v1h-1zM58 85h1v1h-1zM60 85h3v1h-3zM70 85h1v1h-1zM73 85h1v1h-1zM75 85h1v1h-1zM78 85h1v1h-1zM81 85h1v1h-1zM85 85h1v1h-1zM100 85h2v1h-2zM20 86h1v1h-1zM28 86h1v1h-1zM31 86h1v1h-1zM34 86h1v1h-1zM40 86h1v1h-1zM51 86h1v1h-1zM58 86h1v1h-1zM60 86h3v1h-3zM70 86h1v1h-1zM72 86h1v1h-1zM75 86h1v1h-1zM78 86h1v1h-1zM81 86h1v1h-1zM85 86h1v1h-1zM100 86h2v1h-2zM21 87h1v1h-1zM28 87h1v1h-1zM31 87h1v1h-1zM34 87h1v1h-1zM40 87h1v1h-1zM51 87h1v1h-1zM58 87h1v1h-1zM60 87h3v1h-3zM70 87h1v1h-1zM72 87h1v1h-1zM75 87h1v1h-1zM78 87h1v1h-1zM80 87h2v1h-2zM85 87h1v1h-1zM100 87h2v1h-2zM21 88h1v1h-1zM28 88h1v1h-1zM35 88h1v1h-1zM38 88h1v1h-1zM60 88h3v1h-3zM70 88h1v1h-1zM72 88h1v1h-1zM75 88h1v1h-1zM78 88h1v1h-1zM80 88h2v1h-2zM99 88h1v1h-1zM101 88h1v1h-1zM105 88h1v1h-1zM21 89h1v1h-1zM28 89h2v1h-2zM32 89h1v1h-1zM35 89h1v1h-1zM38 89h1v1h-1zM60 89h3v1h-3zM70 89h1v1h-1zM72 89h1v1h-1zM75 89h1v1h-1zM78 89h1v1h-1zM80 89h2v1h-2zM99 89h1v1h-1zM101 89h1v1h-1zM105 89h1v1h-1zM21 90h1v1h-1zM29 90h1v1h-1zM32 90h1v1h-1zM35 90h1v1h-1zM38 90h1v1h-1zM60 90h3v1h-3zM70 90h1v1h-1zM72 90h1v1h-1zM75 90h1v1h-1zM78 90h1v1h-1zM80 90h2v1h-2zM96 90h1v1h-1zM99 90h1v1h-1zM101 90h1v1h-1zM105 90h1v1h-1zM21 91h1v1h-1zM29 91h1v1h-1zM32 91h1v1h-1zM35 91h1v1h-1zM38 91h1v1h-1zM60 91h3v1h-3zM70 91h1v1h-1zM72 91h1v1h-1zM75 91h1v1h-1zM78 91h1v1h-1zM80 91h2v1h-2zM99 91h1v1h-1zM101 91h1v1h-1zM105 91h1v1h-1zM21 92h1v1h-1zM27 92h1v1h-1zM29 92h1v1h-1zM32 92h2v1h-2zM35 92h2v1h-2zM60 92h3v1h-3zM72 92h1v1h-1zM75 92h1v1h-1zM78 92h1v1h-1zM99 92h1v1h-1zM101 92h1v1h-1zM105 92h1v1h-1zM21 93h1v1h-1zM27 93h1v1h-1zM30 93h1v1h-1zM32 93h2v1h-2zM35 93h2v1h-2zM39 93h1v1h-1zM60 93h3v1h-3zM72 93h1v1h-1zM75 93h1v1h-1zM78 93h1v1h-1zM99 93h1v1h-1zM101 93h1v1h-1zM105 93h1v1h-1zM21 94h1v1h-1zM30 94h1v1h-1zM39 94h2v1h-2zM42 94h1v1h-1zM61 94h2v1h-2zM72 94h1v1h-1zM75 94h1v1h-1zM99 94h1v1h-1zM101 94h1v1h-1zM105 94h1v1h-1zM21 95h1v1h-1zM42 95h1v1h-1zM61 95h1v1h-1zM99 95h1v1h-1zM101 95h1v1h-1zM105 95h1v1h-1zM21 96h1v1h-1zM33 96h2v1h-2zM21 97h1v1h-1zM32 97h2v1h-2zM21 98h1v1h-1zM21 99h1v1h-1zM29 99h1v1h-1zM35 99h1v1h-1zM39 99h1v1h-1zM21 100h1v1h-1zM28 100h1v1h-1zM33 100h2v1h-2zM38 100h1v1h-1zM55 100h1v1h-1zM67 100h1v1h-1zM82 100h1v1h-1zM32 101h2v1h-2zM45 101h1v1h-1zM49 101h2v1h-2zM55 101h1v1h-1zM66 101h2v1h-2zM72 101h2v1h-2zM77 101h4v1h-4zM31 102h2v1h-2zM36 102h1v1h-1zM39 102h3v1h-3zM48 102h3v1h-3zM54 102h2v1h-2zM60 102h2v1h-2zM66 102h4v1h-4zM72 102h3v1h-3zM31 103h1v1h-1zM35 103h1v1h-1zM39 103h1v1h-1zM42 103h2v1h-2zM47 103h2v1h-2zM54 103h2v1h-2zM60 103h2v1h-2zM66 103h3v1h-3zM72 103h3v1h-3zM78 103h2v1h-2zM35 104h4v1h-4zM46 104h3v1h-3zM54 104h1v1h-1zM66 104h3v1h-3zM72 104h4v1h-4zM34 105h1v1h-1zM38 105h4v1h-4zM47 105h2v1h-2zM53 105h3v1h-3zM60 105h1v1h-1zM65 105h4v1h-4zM72 105h2v1h-2zM75 105h1v1h-1zM84 105h1v1h-1zM35 106h2v1h-2zM42 106h3v1h-3zM53 106h1v1h-1zM60 106h2v1h-2zM65 106h3v1h-3zM71 106h3v1h-3zM75 106h1v1h-1zM33 107h1v1h-1zM38 107h2v1h-2zM46 107h3v1h-3zM52 107h2v1h-2zM66 107h2v1h-2zM71 107h2v1h-2zM75 107h1v1h-1zM34 108h2v1h-2zM41 108h1v1h-1zM52 108h1v1h-1zM66 108h2v1h-2zM71 108h2v1h-2zM76 108h1v1h-1zM35 109h2v1h-2zM44 109h2v1h-2zM58 109h3v1h-3zM66 109h2v1h-2zM71 109h1v1h-1zM76 109h1v1h-1zM82 109h4v1h-4zM40 110h3v1h-3zM50 110h2v1h-2zM60 110h1v1h-1zM64 110h1v1h-1zM71 110h1v1h-1zM45 111h1v1h-1zM50 111h6v1h-6zM76 111h1v1h-1zM38 112h1v1h-1zM70 112h1v1h-1zM75 112h2v1h-2zM69 113h1v1h-1zM75 113h1v1h-1zM46 114h2v1h-2zM69 114h1v1h-1zM68 115h1v1h-1zM44 116h2v1h-2zM66 116h2v1h-2zM66 117h1v1h-1zM94 117h1v1h-1zM52 118h2v1h-2zM64 118h3v1h-3zM73 118h2v1h-2z"/>
<path fill="#352E29" d="M58 13h1v1h-1zM58 15h1v1h-1zM52 17h1v1h-1zM51 18h1v1h-1zM61 18h2v1h-2zM53 19h1v1h-1zM55 20h1v1h-1zM76 20h1v1h-1zM54 21h1v1h-1zM77 22h1v1h-1zM78 23h1v1h-1zM49 24h1v1h-1zM51 24h1v1h-1zM78 24h1v1h-1zM50 27h1v1h-1zM52 27h1v1h-1zM78 27h1v1h-1zM77 28h1v1h-1zM79 28h1v1h-1zM79 29h1v1h-1zM75 33h1v1h-1zM78 33h1v1h-1zM55 45h1v1h-1zM59 46h1v1h-1zM68 47h1v1h-1zM64 48h1v1h-1zM63 49h1v1h-1zM75 52h1v1h-1zM42 58h1v1h-1zM73 58h1v1h-1zM85 58h1v1h-1zM33 59h2v1h-2zM36 59h1v1h-1zM39 59h1v1h-1zM55 59h1v1h-1zM85 59h1v1h-1zM88 59h1v1h-1zM31 60h2v1h-2zM42 60h1v1h-1zM81 60h1v1h-1zM88 60h1v1h-1zM30 61h1v1h-1zM37 61h1v1h-1zM42 61h1v1h-1zM45 61h1v1h-1zM90 61h1v1h-1zM92 61h1v1h-1zM29 62h1v1h-1zM46 62h1v1h-1zM89 62h1v1h-1zM92 62h1v1h-1zM94 62h1v1h-1zM32 63h1v1h-1zM37 63h1v1h-1zM58 63h1v1h-1zM72 63h1v1h-1zM89 63h1v1h-1zM93 63h1v1h-1zM89 64h1v1h-1zM94 64h1v1h-1zM34 65h2v1h-2zM38 65h2v1h-2zM66 65h1v1h-1zM89 65h1v1h-1zM35 66h2v1h-2zM67 66h1v1h-1zM70 66h1v1h-1zM75 66h1v1h-1zM88 66h1v1h-1zM95 66h2v1h-2zM99 66h1v1h-1zM44 67h1v1h-1zM49 67h1v1h-1zM54 67h1v1h-1zM56 67h1v1h-1zM66 67h1v1h-1zM74 67h2v1h-2zM81 67h1v1h-1zM91 67h1v1h-1zM98 67h1v1h-1zM49 68h1v1h-1zM55 68h1v1h-1zM63 68h1v1h-1zM72 68h1v1h-1zM75 68h1v1h-1zM81 68h1v1h-1zM96 68h1v1h-1zM40 69h1v1h-1zM42 69h1v1h-1zM46 69h1v1h-1zM53 69h1v1h-1zM65 69h1v1h-1zM67 69h1v1h-1zM78 69h1v1h-1zM91 69h1v1h-1zM26 70h1v1h-1zM31 70h1v1h-1zM36 70h1v1h-1zM38 70h1v1h-1zM46 70h1v1h-1zM60 70h1v1h-1zM65 70h1v1h-1zM67 70h1v1h-1zM69 70h1v1h-1zM78 70h1v1h-1zM81 70h1v1h-1zM90 70h1v1h-1zM97 70h1v1h-1zM100 70h1v1h-1zM46 71h1v1h-1zM78 71h2v1h-2zM99 71h2v1h-2zM25 72h1v1h-1zM38 72h1v1h-1zM45 72h1v1h-1zM48 72h1v1h-1zM50 72h1v1h-1zM78 72h2v1h-2zM98 72h1v1h-1zM35 73h1v1h-1zM38 73h1v1h-1zM43 73h1v1h-1zM45 73h1v1h-1zM57 73h1v1h-1zM60 73h1v1h-1zM78 73h2v1h-2zM96 73h2v1h-2zM100 73h1v1h-1zM36 74h1v1h-1zM45 74h1v1h-1zM57 74h1v1h-1zM64 74h1v1h-1zM71 74h1v1h-1zM78 74h2v1h-2zM95 74h2v1h-2zM100 74h1v1h-1zM24 75h1v1h-1zM28 75h1v1h-1zM40 75h1v1h-1zM45 75h1v1h-1zM52 75h1v1h-1zM55 75h1v1h-1zM57 75h1v1h-1zM64 75h1v1h-1zM68 75h1v1h-1zM71 75h1v1h-1zM78 75h2v1h-2zM85 75h1v1h-1zM95 75h1v1h-1zM97 75h1v1h-1zM100 75h1v1h-1zM24 76h1v1h-1zM28 76h1v1h-1zM31 76h1v1h-1zM35 76h1v1h-1zM45 76h1v1h-1zM52 76h1v1h-1zM58 76h1v1h-1zM61 76h1v1h-1zM64 76h1v1h-1zM68 76h1v1h-1zM71 76h1v1h-1zM78 76h2v1h-2zM83 76h1v1h-1zM85 76h1v1h-1zM97 76h1v1h-1zM100 76h1v1h-1zM28 77h1v1h-1zM31 77h1v1h-1zM68 77h1v1h-1zM71 77h1v1h-1zM78 77h2v1h-2zM83 77h1v1h-1zM85 77h1v1h-1zM89 77h1v1h-1zM92 77h1v1h-1zM97 77h1v1h-1zM100 77h1v1h-1zM28 78h1v1h-1zM30 78h1v1h-1zM51 78h1v1h-1zM58 78h1v1h-1zM68 78h1v1h-1zM71 78h1v1h-1zM78 78h2v1h-2zM83 78h1v1h-1zM85 78h1v1h-1zM89 78h1v1h-1zM97 78h1v1h-1zM101 78h1v1h-1zM28 79h1v1h-1zM34 79h1v1h-1zM39 79h1v1h-1zM56 79h1v1h-1zM60 79h1v1h-1zM68 79h1v1h-1zM71 79h1v1h-1zM78 79h2v1h-2zM85 79h1v1h-1zM89 79h1v1h-1zM97 79h1v1h-1zM100 79h2v1h-2zM23 80h1v1h-1zM28 80h1v1h-1zM53 80h1v1h-1zM56 80h1v1h-1zM66 80h1v1h-1zM68 80h1v1h-1zM71 80h1v1h-1zM78 80h2v1h-2zM85 80h1v1h-1zM89 80h1v1h-1zM93 80h1v1h-1zM96 80h2v1h-2zM101 80h1v1h-1zM23 81h1v1h-1zM28 81h1v1h-1zM36 81h2v1h-2zM53 81h1v1h-1zM56 81h1v1h-1zM68 81h1v1h-1zM71 81h1v1h-1zM78 81h2v1h-2zM85 81h1v1h-1zM93 81h1v1h-1zM96 81h2v1h-2zM101 81h1v1h-1zM27 82h2v1h-2zM30 82h1v1h-1zM53 82h1v1h-1zM68 82h1v1h-1zM71 82h1v1h-1zM78 82h2v1h-2zM93 82h1v1h-1zM96 82h2v1h-2zM101 82h1v1h-1zM22 83h1v1h-1zM27 83h1v1h-1zM49 83h1v1h-1zM53 83h1v1h-1zM68 83h1v1h-1zM71 83h1v1h-1zM78 83h2v1h-2zM85 83h1v1h-1zM93 83h1v1h-1zM96 83h2v1h-2zM101 83h1v1h-1zM22 84h1v1h-1zM27 84h1v1h-1zM35 84h1v1h-1zM38 84h1v1h-1zM40 84h2v1h-2zM49 84h1v1h-1zM53 84h1v1h-1zM68 84h1v1h-1zM71 84h1v1h-1zM78 84h2v1h-2zM85 84h1v1h-1zM93 84h1v1h-1zM96 84h2v1h-2zM101 84h1v1h-1zM27 85h1v1h-1zM35 85h1v1h-1zM38 85h1v1h-1zM42 85h1v1h-1zM49 85h1v1h-1zM53 85h1v1h-1zM68 85h1v1h-1zM79 85h1v1h-1zM83 85h1v1h-1zM93 85h1v1h-1zM96 85h2v1h-2zM103 85h1v1h-1zM27 86h1v1h-1zM35 86h1v1h-1zM38 86h1v1h-1zM42 86h1v1h-1zM49 86h1v1h-1zM53 86h1v1h-1zM68 86h1v1h-1zM73 86h1v1h-1zM80 86h1v1h-1zM86 86h1v1h-1zM93 86h1v1h-1zM96 86h2v1h-2zM103 86h1v1h-1zM35 87h1v1h-1zM38 87h1v1h-1zM42 87h1v1h-1zM49 87h1v1h-1zM53 87h1v1h-1zM68 87h1v1h-1zM74 87h1v1h-1zM93 87h1v1h-1zM96 87h2v1h-2zM103 87h1v1h-1zM29 88h1v1h-1zM31 88h2v1h-2zM34 88h1v1h-1zM39 88h1v1h-1zM42 88h1v1h-1zM53 88h1v1h-1zM58 88h1v1h-1zM68 88h1v1h-1zM74 88h1v1h-1zM85 88h1v1h-1zM95 88h3v1h-3zM103 88h1v1h-1zM31 89h1v1h-1zM39 89h1v1h-1zM42 89h1v1h-1zM50 89h1v1h-1zM53 89h1v1h-1zM68 89h1v1h-1zM74 89h1v1h-1zM93 89h1v1h-1zM96 89h2v1h-2zM103 89h1v1h-1zM31 90h1v1h-1zM39 90h1v1h-1zM42 90h1v1h-1zM50 90h1v1h-1zM53 90h1v1h-1zM68 90h1v1h-1zM74 90h1v1h-1zM97 90h1v1h-1zM103 90h1v1h-1zM31 91h1v1h-1zM36 91h1v1h-1zM39 91h1v1h-1zM42 91h1v1h-1zM53 91h1v1h-1zM68 91h1v1h-1zM74 91h1v1h-1zM97 91h1v1h-1zM103 91h1v1h-1zM38 92h2v1h-2zM42 92h1v1h-1zM53 92h1v1h-1zM74 92h1v1h-1zM80 92h1v1h-1zM97 92h1v1h-1zM103 92h1v1h-1zM38 93h1v1h-1zM40 93h1v1h-1zM42 93h1v1h-1zM53 93h1v1h-1zM74 93h1v1h-1zM97 93h1v1h-1zM103 93h1v1h-1zM27 94h2v1h-2zM38 94h1v1h-1zM41 94h1v1h-1zM53 94h1v1h-1zM70 94h1v1h-1zM74 94h1v1h-1zM97 94h1v1h-1zM103 94h1v1h-1zM97 95h1v1h-1zM103 95h1v1h-1zM35 96h1v1h-1zM97 96h1v1h-1zM31 97h1v1h-1zM40 97h1v1h-1zM84 97h1v1h-1zM30 98h2v1h-2zM38 98h1v1h-1zM40 99h1v1h-1zM44 99h1v1h-1zM45 100h2v1h-2zM50 100h1v1h-1zM66 100h1v1h-1zM107 100h1v1h-1zM27 101h2v1h-2zM40 101h1v1h-1zM43 101h1v1h-1zM68 101h1v1h-1zM22 102h1v1h-1zM35 102h1v1h-1zM37 102h2v1h-2zM42 102h1v1h-1zM56 102h1v1h-1zM82 102h3v1h-3zM106 102h1v1h-1zM22 103h1v1h-1zM30 103h1v1h-1zM34 103h1v1h-1zM69 103h1v1h-1zM75 103h1v1h-1zM22 104h1v1h-1zM30 104h1v1h-1zM34 104h1v1h-1zM39 104h1v1h-1zM56 104h1v1h-1zM22 105h1v1h-1zM30 105h1v1h-1zM33 105h1v1h-1zM42 105h2v1h-2zM49 105h1v1h-1zM61 105h1v1h-1zM78 105h1v1h-1zM82 105h2v1h-2zM85 105h2v1h-2zM23 106h1v1h-1zM31 106h1v1h-1zM41 106h1v1h-1zM45 106h2v1h-2zM54 106h2v1h-2zM80 106h2v1h-2zM101 106h1v1h-1zM37 107h1v1h-1zM40 107h1v1h-1zM45 107h1v1h-1zM36 108h1v1h-1zM42 108h1v1h-1zM44 108h1v1h-1zM51 108h1v1h-1zM61 108h1v1h-1zM65 108h1v1h-1zM37 109h2v1h-2zM46 109h1v1h-1zM53 109h5v1h-5zM61 109h1v1h-1zM65 109h1v1h-1zM75 109h1v1h-1zM81 109h1v1h-1zM86 109h1v1h-1zM34 110h1v1h-1zM43 110h1v1h-1zM65 110h1v1h-1zM76 110h1v1h-1zM35 111h1v1h-1zM42 111h1v1h-1zM44 111h1v1h-1zM70 111h2v1h-2zM57 112h3v1h-3zM64 112h4v1h-4zM71 112h1v1h-1zM82 112h4v1h-4zM40 113h4v1h-4zM49 113h10v1h-10zM64 113h1v1h-1zM70 113h1v1h-1zM78 113h2v1h-2zM85 113h1v1h-1zM75 114h1v1h-1zM78 114h1v1h-1zM41 115h2v1h-2zM67 115h1v1h-1zM46 116h11v1h-11zM63 116h3v1h-3zM68 116h1v1h-1zM74 116h2v1h-2zM77 116h1v1h-1zM100 116h1v1h-1zM61 117h2v1h-2zM74 117h1v1h-1zM86 117h1v1h-1zM51 118h1v1h-1zM54 118h1v1h-1zM85 118h1v1h-1zM88 118h1v1h-1z"/>
<path fill="#312A27" d="M66 13h1v1h-1zM62 14h1v1h-1zM64 14h1v1h-1zM70 14h1v1h-1zM63 15h1v1h-1zM63 16h1v1h-1zM62 17h1v1h-1zM66 17h1v1h-1zM53 18h1v1h-1zM59 18h1v1h-1zM70 19h1v1h-1zM53 20h1v1h-1zM50 22h1v1h-1zM50 23h1v1h-1zM73 23h1v1h-1zM49 25h1v1h-1zM49 28h1v1h-1zM68 29h1v1h-1zM48 30h1v1h-1zM77 31h1v1h-1zM78 32h1v1h-1zM79 34h1v1h-1zM77 37h1v1h-1zM75 39h1v1h-1zM51 40h1v1h-1zM53 42h1v1h-1zM54 44h1v1h-1zM56 46h1v1h-1zM58 46h1v1h-1zM60 46h1v1h-1zM69 46h1v1h-1zM54 47h1v1h-1zM60 47h1v1h-1zM69 47h1v1h-1zM67 48h1v1h-1zM58 49h1v1h-1zM65 49h1v1h-1zM75 51h2v1h-2zM78 54h1v1h-1zM40 57h1v1h-1zM42 57h1v1h-1zM35 58h1v1h-1zM71 59h1v1h-1zM87 59h1v1h-1zM40 60h1v1h-1zM87 60h1v1h-1zM57 62h1v1h-1zM28 63h1v1h-1zM34 63h1v1h-1zM47 63h1v1h-1zM92 63h1v1h-1zM94 63h1v1h-1zM28 64h1v1h-1zM33 64h1v1h-1zM40 64h1v1h-1zM45 64h2v1h-2zM28 65h1v1h-1zM53 65h1v1h-1zM65 65h1v1h-1zM70 65h1v1h-1zM76 65h2v1h-2zM93 65h1v1h-1zM27 66h1v1h-1zM41 66h1v1h-1zM52 66h1v1h-1zM54 66h1v1h-1zM79 66h1v1h-1zM93 66h1v1h-1zM34 67h1v1h-1zM37 67h1v1h-1zM41 67h1v1h-1zM52 67h1v1h-1zM68 67h1v1h-1zM93 67h1v1h-1zM26 68h1v1h-1zM29 68h1v1h-1zM36 68h1v1h-1zM40 68h2v1h-2zM44 68h1v1h-1zM57 68h1v1h-1zM66 68h1v1h-1zM68 68h1v1h-1zM70 68h1v1h-1zM74 68h1v1h-1zM97 68h3v1h-3zM30 69h1v1h-1zM35 69h3v1h-3zM44 69h1v1h-1zM57 69h1v1h-1zM61 69h1v1h-1zM68 69h1v1h-1zM74 69h1v1h-1zM77 69h1v1h-1zM97 69h1v1h-1zM43 70h1v1h-1zM50 70h1v1h-1zM58 70h1v1h-1zM72 70h1v1h-1zM94 70h1v1h-1zM37 71h2v1h-2zM43 71h1v1h-1zM45 71h1v1h-1zM50 71h1v1h-1zM63 71h1v1h-1zM66 71h1v1h-1zM72 71h2v1h-2zM43 72h1v1h-1zM63 72h1v1h-1zM65 72h2v1h-2zM72 72h2v1h-2zM94 72h1v1h-1zM96 72h1v1h-1zM101 72h1v1h-1zM25 73h1v1h-1zM39 73h1v1h-1zM47 73h2v1h-2zM51 73h1v1h-1zM65 73h2v1h-2zM72 73h2v1h-2zM24 74h1v1h-1zM42 74h2v1h-2zM47 74h2v1h-2zM50 74h2v1h-2zM97 74h1v1h-1zM33 75h1v1h-1zM43 75h1v1h-1zM47 75h2v1h-2zM51 75h1v1h-1zM70 75h1v1h-1zM74 75h2v1h-2zM96 75h1v1h-1zM43 76h1v1h-1zM47 76h2v1h-2zM51 76h1v1h-1zM70 76h1v1h-1zM90 76h1v1h-1zM47 77h2v1h-2zM51 77h2v1h-2zM55 77h1v1h-1zM58 77h2v1h-2zM70 77h1v1h-1zM99 77h1v1h-1zM101 77h1v1h-1zM31 78h1v1h-1zM35 78h3v1h-3zM40 78h1v1h-1zM47 78h2v1h-2zM70 78h1v1h-1zM100 78h1v1h-1zM102 78h1v1h-1zM22 79h1v1h-1zM36 79h2v1h-2zM41 79h1v1h-1zM47 79h2v1h-2zM53 79h1v1h-1zM70 79h1v1h-1zM96 79h1v1h-1zM102 79h1v1h-1zM36 80h2v1h-2zM46 80h3v1h-3zM86 80h1v1h-1zM102 80h1v1h-1zM27 81h1v1h-1zM47 81h2v1h-2zM64 81h1v1h-1zM86 81h1v1h-1zM102 81h2v1h-2zM31 82h2v1h-2zM40 82h1v1h-1zM47 82h2v1h-2zM57 82h1v1h-1zM69 82h1v1h-1zM86 82h1v1h-1zM102 82h1v1h-1zM30 83h1v1h-1zM37 83h2v1h-2zM40 83h1v1h-1zM54 83h1v1h-1zM86 83h1v1h-1zM102 83h1v1h-1zM104 83h1v1h-1zM54 84h1v1h-1zM86 84h1v1h-1zM104 84h1v1h-1zM29 85h2v1h-2zM54 85h1v1h-1zM71 85h2v1h-2zM86 85h1v1h-1zM29 86h2v1h-2zM33 86h1v1h-1zM54 86h1v1h-1zM74 86h1v1h-1zM76 86h2v1h-2zM83 86h1v1h-1zM91 86h1v1h-1zM29 87h2v1h-2zM32 87h1v1h-1zM54 87h1v1h-1zM76 87h1v1h-1zM83 87h2v1h-2zM86 87h1v1h-1zM91 87h1v1h-1zM26 88h1v1h-1zM49 88h1v1h-1zM51 88h1v1h-1zM54 88h1v1h-1zM76 88h2v1h-2zM83 88h2v1h-2zM91 88h1v1h-1zM93 88h1v1h-1zM26 89h1v1h-1zM34 89h1v1h-1zM36 89h2v1h-2zM51 89h1v1h-1zM54 89h1v1h-1zM76 89h2v1h-2zM83 89h2v1h-2zM26 90h1v1h-1zM34 90h1v1h-1zM36 90h2v1h-2zM54 90h1v1h-1zM76 90h2v1h-2zM83 90h1v1h-1zM33 91h1v1h-1zM50 91h1v1h-1zM54 91h1v1h-1zM76 91h2v1h-2zM30 92h2v1h-2zM54 92h2v1h-2zM76 92h2v1h-2zM29 93h1v1h-1zM54 93h1v1h-1zM69 93h1v1h-1zM76 93h2v1h-2zM54 94h1v1h-1zM77 94h1v1h-1zM95 94h1v1h-1zM27 95h1v1h-1zM41 95h1v1h-1zM74 95h2v1h-2zM98 95h1v1h-1zM38 96h1v1h-1zM95 96h1v1h-1zM38 97h2v1h-2zM35 98h3v1h-3zM30 99h1v1h-1zM34 99h1v1h-1zM41 99h3v1h-3zM83 99h1v1h-1zM29 100h1v1h-1zM37 100h1v1h-1zM81 100h1v1h-1zM83 100h1v1h-1zM36 101h1v1h-1zM39 101h1v1h-1zM44 101h1v1h-1zM51 101h1v1h-1zM54 101h1v1h-1zM74 101h1v1h-1zM57 102h1v1h-1zM75 102h1v1h-1zM81 102h1v1h-1zM32 103h1v1h-1zM36 103h1v1h-1zM40 103h2v1h-2zM49 103h1v1h-1zM80 103h2v1h-2zM55 104h1v1h-1zM80 104h1v1h-1zM31 105h1v1h-1zM37 105h1v1h-1zM52 105h1v1h-1zM59 105h1v1h-1zM79 105h1v1h-1zM107 105h1v1h-1zM32 106h1v1h-1zM34 106h1v1h-1zM52 106h1v1h-1zM68 106h1v1h-1zM102 106h1v1h-1zM107 106h1v1h-1zM23 107h1v1h-1zM32 107h1v1h-1zM60 107h2v1h-2zM65 107h1v1h-1zM73 107h1v1h-1zM76 107h1v1h-1zM40 108h1v1h-1zM43 108h1v1h-1zM58 108h3v1h-3zM79 108h1v1h-1zM82 108h4v1h-4zM32 109h1v1h-1zM39 109h1v1h-1zM47 109h1v1h-1zM68 109h1v1h-1zM70 109h1v1h-1zM72 109h1v1h-1zM39 110h1v1h-1zM70 110h1v1h-1zM79 110h1v1h-1zM43 111h1v1h-1zM56 111h1v1h-1zM75 111h1v1h-1zM37 112h1v1h-1zM39 112h3v1h-3zM56 112h1v1h-1zM60 112h1v1h-1zM81 112h1v1h-1zM63 113h1v1h-1zM74 113h1v1h-1zM84 113h1v1h-1zM44 114h1v1h-1zM48 114h1v1h-1zM66 114h1v1h-1zM68 114h1v1h-1zM74 114h1v1h-1zM44 115h2v1h-2zM63 115h1v1h-1zM69 115h1v1h-1zM74 115h2v1h-2zM57 116h1v1h-1zM42 117h1v1h-1zM67 117h1v1h-1zM75 117h1v1h-1zM99 117h1v1h-1zM101 117h1v1h-1zM75 118h1v1h-1zM95 118h1v1h-1zM101 118h1v1h-1z"/>
<path fill="#2E2825" d="M62 13h2v1h-2zM72 15h1v1h-1zM68 17h1v1h-1zM71 20h1v1h-1zM73 22h1v1h-1zM48 26h1v1h-1zM51 26h1v1h-1zM75 27h1v1h-1zM77 27h1v1h-1zM48 29h1v1h-1zM76 30h1v1h-1zM78 31h1v1h-1zM48 37h1v1h-1zM73 44h1v1h-1zM64 49h1v1h-1zM77 53h1v1h-1zM40 56h1v1h-1zM54 56h1v1h-1zM80 56h1v1h-1zM40 58h1v1h-1zM43 58h1v1h-1zM88 58h1v1h-1zM37 59h1v1h-1zM41 59h1v1h-1zM43 59h1v1h-1zM90 59h1v1h-1zM44 60h1v1h-1zM33 61h1v1h-1zM79 61h1v1h-1zM86 61h1v1h-1zM90 62h1v1h-1zM51 63h2v1h-2zM32 64h1v1h-1zM37 64h1v1h-1zM39 64h1v1h-1zM47 64h1v1h-1zM51 64h1v1h-1zM58 64h1v1h-1zM68 64h4v1h-4zM75 64h3v1h-3zM93 64h1v1h-1zM97 64h1v1h-1zM33 65h1v1h-1zM47 65h1v1h-1zM51 65h1v1h-1zM58 65h1v1h-1zM67 65h1v1h-1zM69 65h1v1h-1zM40 66h1v1h-1zM64 66h1v1h-1zM69 66h1v1h-1zM73 66h1v1h-1zM76 66h1v1h-1zM97 66h1v1h-1zM40 67h1v1h-1zM46 67h1v1h-1zM69 67h1v1h-1zM76 67h1v1h-1zM80 67h1v1h-1zM95 67h1v1h-1zM97 67h1v1h-1zM35 68h1v1h-1zM56 68h1v1h-1zM67 68h1v1h-1zM69 68h1v1h-1zM76 68h1v1h-1zM80 68h1v1h-1zM94 68h2v1h-2zM29 69h1v1h-1zM31 69h1v1h-1zM47 69h1v1h-1zM50 69h1v1h-1zM69 69h1v1h-1zM80 69h1v1h-1zM95 69h1v1h-1zM98 69h1v1h-1zM66 70h1v1h-1zM73 70h1v1h-1zM95 70h1v1h-1zM101 70h1v1h-1zM26 71h1v1h-1zM34 71h1v1h-1zM47 71h1v1h-1zM65 71h1v1h-1zM69 71h1v1h-1zM80 71h1v1h-1zM91 71h1v1h-1zM98 71h1v1h-1zM37 72h1v1h-1zM47 72h1v1h-1zM69 72h1v1h-1zM80 72h1v1h-1zM87 72h1v1h-1zM97 72h1v1h-1zM99 72h1v1h-1zM24 73h1v1h-1zM54 73h1v1h-1zM59 73h1v1h-1zM61 73h1v1h-1zM63 73h1v1h-1zM69 73h1v1h-1zM80 73h1v1h-1zM92 73h2v1h-2zM30 74h1v1h-1zM49 74h1v1h-1zM61 74h1v1h-1zM80 74h1v1h-1zM98 74h1v1h-1zM102 74h1v1h-1zM30 75h1v1h-1zM58 75h1v1h-1zM61 75h1v1h-1zM63 75h1v1h-1zM80 75h1v1h-1zM98 75h1v1h-1zM30 76h1v1h-1zM55 76h1v1h-1zM62 76h1v1h-1zM80 76h1v1h-1zM89 76h1v1h-1zM98 76h1v1h-1zM29 77h2v1h-2zM43 77h1v1h-1zM80 77h1v1h-1zM98 77h1v1h-1zM22 78h1v1h-1zM24 78h1v1h-1zM29 78h1v1h-1zM44 78h1v1h-1zM52 78h1v1h-1zM59 78h2v1h-2zM80 78h1v1h-1zM98 78h1v1h-1zM29 79h1v1h-1zM80 79h1v1h-1zM94 79h1v1h-1zM98 79h1v1h-1zM29 80h1v1h-1zM69 80h1v1h-1zM80 80h1v1h-1zM84 80h1v1h-1zM88 80h1v1h-1zM94 80h1v1h-1zM98 80h1v1h-1zM103 80h1v1h-1zM29 81h1v1h-1zM69 81h1v1h-1zM80 81h1v1h-1zM84 81h1v1h-1zM88 81h1v1h-1zM94 81h2v1h-2zM98 81h1v1h-1zM80 82h1v1h-1zM84 82h1v1h-1zM94 82h2v1h-2zM98 82h1v1h-1zM41 83h1v1h-1zM43 83h1v1h-1zM48 83h1v1h-1zM69 83h1v1h-1zM80 83h1v1h-1zM84 83h1v1h-1zM94 83h2v1h-2zM98 83h1v1h-1zM29 84h2v1h-2zM47 84h1v1h-1zM69 84h1v1h-1zM77 84h1v1h-1zM80 84h1v1h-1zM94 84h2v1h-2zM98 84h1v1h-1zM47 85h1v1h-1zM69 85h1v1h-1zM76 85h2v1h-2zM80 85h1v1h-1zM91 85h1v1h-1zM95 85h1v1h-1zM98 85h1v1h-1zM21 86h1v1h-1zM26 86h1v1h-1zM32 86h1v1h-1zM47 86h1v1h-1zM69 86h1v1h-1zM79 86h1v1h-1zM84 86h1v1h-1zM95 86h1v1h-1zM98 86h1v1h-1zM102 86h1v1h-1zM26 87h1v1h-1zM69 87h1v1h-1zM73 87h1v1h-1zM77 87h1v1h-1zM95 87h1v1h-1zM98 87h1v1h-1zM102 87h1v1h-1zM37 88h1v1h-1zM43 88h1v1h-1zM55 88h1v1h-1zM69 88h1v1h-1zM73 88h1v1h-1zM98 88h1v1h-1zM102 88h1v1h-1zM33 89h1v1h-1zM43 89h1v1h-1zM55 89h1v1h-1zM69 89h1v1h-1zM73 89h1v1h-1zM98 89h1v1h-1zM102 89h1v1h-1zM33 90h1v1h-1zM40 90h1v1h-1zM43 90h1v1h-1zM51 90h1v1h-1zM55 90h1v1h-1zM69 90h1v1h-1zM84 90h1v1h-1zM98 90h1v1h-1zM102 90h1v1h-1zM26 91h2v1h-2zM34 91h1v1h-1zM37 91h1v1h-1zM51 91h1v1h-1zM55 91h1v1h-1zM69 91h1v1h-1zM98 91h1v1h-1zM102 91h1v1h-1zM26 92h1v1h-1zM40 92h1v1h-1zM68 92h2v1h-2zM96 92h1v1h-1zM98 92h1v1h-1zM102 92h1v1h-1zM26 93h1v1h-1zM28 93h1v1h-1zM37 93h1v1h-1zM73 93h1v1h-1zM98 93h1v1h-1zM102 93h1v1h-1zM73 94h1v1h-1zM76 94h1v1h-1zM78 94h1v1h-1zM98 94h1v1h-1zM102 94h1v1h-1zM28 95h1v1h-1zM62 95h1v1h-1zM86 95h1v1h-1zM102 95h1v1h-1zM37 96h1v1h-1zM43 96h1v1h-1zM99 96h1v1h-1zM105 97h1v1h-1zM83 98h1v1h-1zM40 100h2v1h-2zM44 100h1v1h-1zM49 100h1v1h-1zM37 101h1v1h-1zM41 101h1v1h-1zM48 101h1v1h-1zM69 101h1v1h-1zM33 102h1v1h-1zM44 102h1v1h-1zM47 102h1v1h-1zM59 102h1v1h-1zM62 102h1v1h-1zM46 103h1v1h-1zM50 103h1v1h-1zM62 103h1v1h-1zM77 103h1v1h-1zM31 104h1v1h-1zM40 104h4v1h-4zM49 104h1v1h-1zM53 104h1v1h-1zM60 104h2v1h-2zM69 104h1v1h-1zM79 104h1v1h-1zM81 104h1v1h-1zM84 104h2v1h-2zM69 105h1v1h-1zM37 106h1v1h-1zM62 106h1v1h-1zM34 107h3v1h-3zM42 107h3v1h-3zM54 107h2v1h-2zM59 107h1v1h-1zM78 107h8v1h-8zM33 108h1v1h-1zM45 108h1v1h-1zM68 108h1v1h-1zM78 108h1v1h-1zM31 109h1v1h-1zM52 109h1v1h-1zM33 110h1v1h-1zM38 110h1v1h-1zM52 110h1v1h-1zM75 110h1v1h-1zM78 110h1v1h-1zM37 111h2v1h-2zM57 111h3v1h-3zM65 111h2v1h-2zM79 111h2v1h-2zM84 111h2v1h-2zM22 112h1v1h-1zM63 112h1v1h-1zM69 112h1v1h-1zM80 112h1v1h-1zM44 113h1v1h-1zM48 113h1v1h-1zM65 113h1v1h-1zM80 113h1v1h-1zM45 114h1v1h-1zM67 114h1v1h-1zM40 115h1v1h-1zM43 115h1v1h-1zM62 115h1v1h-1zM66 115h1v1h-1zM85 116h1v1h-1zM99 116h1v1h-1zM103 116h1v1h-1zM65 117h1v1h-1zM73 117h1v1h-1zM49 118h2v1h-2zM55 118h1v1h-1zM61 118h3v1h-3zM86 118h1v1h-1zM96 118h1v1h-1z"/>
<path fill="#2B2624" d="M60 12h1v1h-1zM57 13h1v1h-1zM69 13h1v1h-1zM63 14h1v1h-1zM52 16h1v1h-1zM59 16h1v1h-1zM73 16h1v1h-1zM57 17h1v1h-1zM54 18h2v1h-2zM65 18h1v1h-1zM69 18h1v1h-1zM50 19h1v1h-1zM56 19h1v1h-1zM74 23h1v1h-1zM53 24h1v1h-1zM74 24h1v1h-1zM79 25h1v1h-1zM48 27h1v1h-1zM49 29h1v1h-1zM80 29h1v1h-1zM47 30h1v1h-1zM78 30h1v1h-1zM80 30h1v1h-1zM80 31h1v1h-1zM75 41h1v1h-1zM52 43h1v1h-1zM59 47h1v1h-1zM74 51h1v1h-1zM76 52h1v1h-1zM79 54h1v1h-1zM36 57h1v1h-1zM85 57h1v1h-1zM34 58h1v1h-1zM40 59h1v1h-1zM34 60h1v1h-1zM37 60h1v1h-1zM91 60h1v1h-1zM35 61h1v1h-1zM38 61h1v1h-1zM88 61h1v1h-1zM29 63h1v1h-1zM31 64h1v1h-1zM35 64h1v1h-1zM27 65h1v1h-1zM32 65h1v1h-1zM40 65h1v1h-1zM43 65h1v1h-1zM73 65h1v1h-1zM79 65h1v1h-1zM91 65h2v1h-2zM94 65h1v1h-1zM96 65h1v1h-1zM43 66h1v1h-1zM74 66h1v1h-1zM98 66h1v1h-1zM39 67h1v1h-1zM48 67h1v1h-1zM61 67h1v1h-1zM73 67h1v1h-1zM27 68h1v1h-1zM30 68h1v1h-1zM48 68h1v1h-1zM73 68h1v1h-1zM100 68h1v1h-1zM49 69h1v1h-1zM59 69h1v1h-1zM66 69h1v1h-1zM70 69h1v1h-1zM73 69h1v1h-1zM75 69h1v1h-1zM96 69h1v1h-1zM30 70h1v1h-1zM33 70h1v1h-1zM35 70h1v1h-1zM44 70h1v1h-1zM47 70h1v1h-1zM56 70h1v1h-1zM71 70h1v1h-1zM77 70h1v1h-1zM80 70h1v1h-1zM98 70h1v1h-1zM36 71h1v1h-1zM41 71h1v1h-1zM49 71h1v1h-1zM77 71h1v1h-1zM96 71h1v1h-1zM39 72h1v1h-1zM59 72h1v1h-1zM68 72h1v1h-1zM77 72h1v1h-1zM34 73h1v1h-1zM58 73h1v1h-1zM77 73h1v1h-1zM87 73h1v1h-1zM99 73h1v1h-1zM101 73h2v1h-2zM29 74h1v1h-1zM38 74h1v1h-1zM54 74h1v1h-1zM58 74h1v1h-1zM63 74h1v1h-1zM65 74h1v1h-1zM77 74h1v1h-1zM99 74h1v1h-1zM65 75h1v1h-1zM77 75h1v1h-1zM99 75h1v1h-1zM29 76h1v1h-1zM36 76h1v1h-1zM65 76h1v1h-1zM77 76h1v1h-1zM96 76h1v1h-1zM99 76h1v1h-1zM101 76h1v1h-1zM22 77h2v1h-2zM61 77h1v1h-1zM65 77h1v1h-1zM77 77h1v1h-1zM90 77h1v1h-1zM93 77h1v1h-1zM95 77h2v1h-2zM23 78h1v1h-1zM34 78h1v1h-1zM53 78h1v1h-1zM55 78h1v1h-1zM65 78h1v1h-1zM72 78h1v1h-1zM77 78h1v1h-1zM92 78h1v1h-1zM96 78h1v1h-1zM99 78h1v1h-1zM23 79h1v1h-1zM44 79h1v1h-1zM65 79h1v1h-1zM72 79h1v1h-1zM77 79h1v1h-1zM84 79h1v1h-1zM93 79h1v1h-1zM26 80h1v1h-1zM41 80h1v1h-1zM44 80h1v1h-1zM65 80h1v1h-1zM72 80h1v1h-1zM77 80h1v1h-1zM95 80h1v1h-1zM99 80h1v1h-1zM26 81h1v1h-1zM72 81h1v1h-1zM77 81h1v1h-1zM99 81h1v1h-1zM26 82h1v1h-1zM56 82h1v1h-1zM65 82h2v1h-2zM72 82h1v1h-1zM77 82h1v1h-1zM88 82h1v1h-1zM99 82h1v1h-1zM103 82h1v1h-1zM21 83h1v1h-1zM26 83h1v1h-1zM29 83h1v1h-1zM72 83h1v1h-1zM77 83h1v1h-1zM91 83h1v1h-1zM99 83h1v1h-1zM103 83h1v1h-1zM26 84h1v1h-1zM36 84h2v1h-2zM43 84h1v1h-1zM48 84h1v1h-1zM52 84h1v1h-1zM59 84h1v1h-1zM72 84h1v1h-1zM84 84h1v1h-1zM91 84h1v1h-1zM99 84h1v1h-1zM22 85h1v1h-1zM26 85h1v1h-1zM36 85h2v1h-2zM41 85h1v1h-1zM48 85h1v1h-1zM52 85h1v1h-1zM59 85h1v1h-1zM84 85h1v1h-1zM94 85h1v1h-1zM99 85h1v1h-1zM36 86h2v1h-2zM52 86h1v1h-1zM59 86h1v1h-1zM94 86h1v1h-1zM99 86h1v1h-1zM105 86h1v1h-1zM25 87h1v1h-1zM33 87h1v1h-1zM37 87h1v1h-1zM47 87h1v1h-1zM52 87h1v1h-1zM59 87h1v1h-1zM99 87h1v1h-1zM105 87h1v1h-1zM36 88h1v1h-1zM40 88h1v1h-1zM52 88h1v1h-1zM59 88h1v1h-1zM27 89h1v1h-1zM30 89h1v1h-1zM40 89h1v1h-1zM52 89h1v1h-1zM59 89h1v1h-1zM30 90h1v1h-1zM59 90h1v1h-1zM73 90h1v1h-1zM28 91h1v1h-1zM30 91h1v1h-1zM40 91h2v1h-2zM43 91h1v1h-1zM73 91h1v1h-1zM37 92h1v1h-1zM73 92h1v1h-1zM43 95h1v1h-1zM95 95h1v1h-1zM36 96h1v1h-1zM34 97h1v1h-1zM41 97h1v1h-1zM32 98h1v1h-1zM36 99h1v1h-1zM66 99h1v1h-1zM32 100h1v1h-1zM39 100h1v1h-1zM42 100h2v1h-2zM60 101h1v1h-1zM76 101h1v1h-1zM81 101h1v1h-1zM107 101h1v1h-1zM27 102h1v1h-1zM30 102h1v1h-1zM51 102h1v1h-1zM65 102h1v1h-1zM33 103h1v1h-1zM44 103h1v1h-1zM65 103h1v1h-1zM45 104h1v1h-1zM59 104h1v1h-1zM65 104h1v1h-1zM76 104h1v1h-1zM78 104h1v1h-1zM82 104h2v1h-2zM29 105h1v1h-1zM44 105h1v1h-1zM62 105h1v1h-1zM76 105h1v1h-1zM40 106h1v1h-1zM76 106h1v1h-1zM31 107h1v1h-1zM41 107h1v1h-1zM51 107h1v1h-1zM68 107h1v1h-1zM30 108h2v1h-2zM37 108h1v1h-1zM53 108h1v1h-1zM70 108h1v1h-1zM75 108h1v1h-1zM77 108h1v1h-1zM80 108h1v1h-1zM86 108h1v1h-1zM43 109h1v1h-1zM77 109h1v1h-1zM80 109h1v1h-1zM32 110h1v1h-1zM45 110h1v1h-1zM57 110h1v1h-1zM66 110h2v1h-2zM77 110h1v1h-1zM80 110h1v1h-1zM85 110h1v1h-1zM36 111h1v1h-1zM40 111h2v1h-2zM46 111h1v1h-1zM49 111h1v1h-1zM60 111h1v1h-1zM64 111h1v1h-1zM67 111h1v1h-1zM77 111h2v1h-2zM81 111h3v1h-3zM86 111h1v1h-1zM86 112h1v1h-1zM59 113h1v1h-1zM76 113h1v1h-1zM86 113h1v1h-1zM38 114h2v1h-2zM49 114h9v1h-9zM63 114h1v1h-1zM65 114h1v1h-1zM46 115h12v1h-12zM64 115h2v1h-2zM77 115h1v1h-1zM36 116h3v1h-3zM98 116h1v1h-1zM102 116h1v1h-1zM27 117h1v1h-1zM40 117h2v1h-2zM43 117h1v1h-1zM64 117h1v1h-1zM93 117h1v1h-1zM98 117h1v1h-1zM102 117h1v1h-1zM48 118h1v1h-1zM60 118h1v1h-1zM87 118h1v1h-1zM97 118h1v1h-1zM100 118h1v1h-1zM102 118h1v1h-1z"/>
<path fill="#272221" d="M53 15h1v1h-1zM53 16h4v1h-4zM67 17h1v1h-1zM56 18h1v1h-1zM67 18h2v1h-2zM49 20h1v1h-1zM72 21h1v1h-1zM77 21h1v1h-1zM52 22h2v1h-2zM53 23h1v1h-1zM75 24h1v1h-1zM76 25h1v1h-1zM47 26h1v1h-1zM79 27h1v1h-1zM75 28h1v1h-1zM78 28h1v1h-1zM80 28h1v1h-1zM75 31h1v1h-1zM47 32h1v1h-1zM49 32h1v1h-1zM78 35h1v1h-1zM52 40h1v1h-1zM75 40h1v1h-1zM71 47h1v1h-1zM73 47h1v1h-1zM70 48h1v1h-1zM78 53h1v1h-1zM75 54h1v1h-1zM80 55h1v1h-1zM72 56h1v1h-1zM35 57h1v1h-1zM39 57h1v1h-1zM54 57h1v1h-1zM36 58h1v1h-1zM82 58h3v1h-3zM31 59h2v1h-2zM69 60h1v1h-1zM76 60h1v1h-1zM92 60h1v1h-1zM51 61h1v1h-1zM56 61h1v1h-1zM94 61h1v1h-1zM38 62h1v1h-1zM52 62h1v1h-1zM86 62h1v1h-1zM36 63h1v1h-1zM45 63h1v1h-1zM71 63h1v1h-1zM86 63h1v1h-1zM90 63h1v1h-1zM29 64h1v1h-1zM42 64h1v1h-1zM78 64h1v1h-1zM88 64h1v1h-1zM91 64h1v1h-1zM95 64h1v1h-1zM98 64h1v1h-1zM74 65h1v1h-1zM86 65h1v1h-1zM95 65h1v1h-1zM98 65h1v1h-1zM34 66h1v1h-1zM46 66h1v1h-1zM49 66h1v1h-1zM71 66h1v1h-1zM81 66h1v1h-1zM86 66h1v1h-1zM43 67h1v1h-1zM55 67h1v1h-1zM57 67h1v1h-1zM59 67h1v1h-1zM67 67h1v1h-1zM71 67h1v1h-1zM86 67h1v1h-1zM28 68h1v1h-1zM71 68h1v1h-1zM86 68h1v1h-1zM28 69h1v1h-1zM32 69h1v1h-1zM86 69h1v1h-1zM88 69h1v1h-1zM53 70h1v1h-1zM57 70h1v1h-1zM70 70h1v1h-1zM75 70h1v1h-1zM53 71h1v1h-1zM57 71h1v1h-1zM64 71h1v1h-1zM75 71h1v1h-1zM95 71h1v1h-1zM101 71h1v1h-1zM32 72h1v1h-1zM35 72h1v1h-1zM53 72h1v1h-1zM57 72h1v1h-1zM75 72h1v1h-1zM26 73h1v1h-1zM28 73h1v1h-1zM30 73h1v1h-1zM75 73h1v1h-1zM85 73h1v1h-1zM25 74h1v1h-1zM32 74h1v1h-1zM37 74h1v1h-1zM67 74h1v1h-1zM75 74h1v1h-1zM87 74h1v1h-1zM91 74h2v1h-2zM29 75h1v1h-1zM37 75h1v1h-1zM42 75h1v1h-1zM50 75h1v1h-1zM53 75h2v1h-2zM67 75h1v1h-1zM87 75h1v1h-1zM91 75h1v1h-1zM53 76h1v1h-1zM60 76h1v1h-1zM67 76h1v1h-1zM82 76h1v1h-1zM84 76h1v1h-1zM87 76h1v1h-1zM102 76h1v1h-1zM53 77h1v1h-1zM60 77h1v1h-1zM67 77h1v1h-1zM82 77h1v1h-1zM84 77h1v1h-1zM87 77h1v1h-1zM103 77h1v1h-1zM25 78h1v1h-1zM67 78h1v1h-1zM82 78h1v1h-1zM87 78h1v1h-1zM103 78h1v1h-1zM25 79h1v1h-1zM62 79h1v1h-1zM67 79h1v1h-1zM82 79h1v1h-1zM22 80h1v1h-1zM31 80h1v1h-1zM35 80h1v1h-1zM40 80h1v1h-1zM62 80h1v1h-1zM67 80h1v1h-1zM82 80h1v1h-1zM22 81h1v1h-1zM38 81h1v1h-1zM46 81h1v1h-1zM62 81h1v1h-1zM82 81h1v1h-1zM22 82h1v1h-1zM35 82h1v1h-1zM54 82h1v1h-1zM62 82h1v1h-1zM82 82h1v1h-1zM92 82h1v1h-1zM35 83h1v1h-1zM57 83h1v1h-1zM62 83h1v1h-1zM66 83h1v1h-1zM82 83h1v1h-1zM92 83h1v1h-1zM50 84h1v1h-1zM57 84h1v1h-1zM62 84h1v1h-1zM82 84h1v1h-1zM92 84h1v1h-1zM102 84h2v1h-2zM39 85h1v1h-1zM50 85h1v1h-1zM55 85h1v1h-1zM57 85h1v1h-1zM82 85h1v1h-1zM39 86h1v1h-1zM50 86h1v1h-1zM57 86h1v1h-1zM104 86h1v1h-1zM20 87h1v1h-1zM27 87h1v1h-1zM39 87h1v1h-1zM57 87h1v1h-1zM104 87h1v1h-1zM33 88h1v1h-1zM56 88h1v1h-1zM104 88h1v1h-1zM56 89h1v1h-1zM82 89h1v1h-1zM85 89h1v1h-1zM92 89h1v1h-1zM104 89h1v1h-1zM56 90h1v1h-1zM82 90h1v1h-1zM85 90h1v1h-1zM104 90h1v1h-1zM22 91h1v1h-1zM56 91h1v1h-1zM92 91h1v1h-1zM104 91h1v1h-1zM20 92h1v1h-1zM28 92h1v1h-1zM34 92h1v1h-1zM43 92h1v1h-1zM52 92h1v1h-1zM56 92h1v1h-1zM81 92h1v1h-1zM90 92h1v1h-1zM104 92h1v1h-1zM20 93h1v1h-1zM63 93h1v1h-1zM80 93h1v1h-1zM104 93h1v1h-1zM26 94h1v1h-1zM31 94h2v1h-2zM69 94h1v1h-1zM104 94h1v1h-1zM104 95h1v1h-1zM20 96h1v1h-1zM27 96h1v1h-1zM32 96h1v1h-1zM61 96h1v1h-1zM98 96h1v1h-1zM101 96h1v1h-1zM103 96h1v1h-1zM22 100h1v1h-1zM27 100h1v1h-1zM21 101h2v1h-2zM26 101h1v1h-1zM34 101h1v1h-1zM38 101h1v1h-1zM42 101h1v1h-1zM46 101h1v1h-1zM59 101h1v1h-1zM71 102h1v1h-1zM24 103h1v1h-1zM53 103h1v1h-1zM59 103h1v1h-1zM71 103h1v1h-1zM32 104h2v1h-2zM44 104h1v1h-1zM71 104h1v1h-1zM32 105h1v1h-1zM35 105h1v1h-1zM71 105h1v1h-1zM47 106h2v1h-2zM56 106h1v1h-1zM59 106h1v1h-1zM82 106h4v1h-4zM29 107h1v1h-1zM49 107h1v1h-1zM58 107h1v1h-1zM86 107h1v1h-1zM23 108h1v1h-1zM38 108h1v1h-1zM46 108h2v1h-2zM50 108h1v1h-1zM73 108h1v1h-1zM24 109h1v1h-1zM41 109h1v1h-1zM48 109h1v1h-1zM51 109h1v1h-1zM64 109h1v1h-1zM27 110h1v1h-1zM35 110h1v1h-1zM22 111h1v1h-1zM25 111h1v1h-1zM28 111h1v1h-1zM33 111h1v1h-1zM24 112h1v1h-1zM33 112h1v1h-1zM44 112h2v1h-2zM50 112h5v1h-5zM78 112h2v1h-2zM38 113h2v1h-2zM45 113h2v1h-2zM67 113h1v1h-1zM37 114h1v1h-1zM43 114h1v1h-1zM62 114h1v1h-1zM70 114h1v1h-1zM85 114h2v1h-2zM34 115h1v1h-1zM36 115h1v1h-1zM58 115h1v1h-1zM39 116h1v1h-1zM62 116h1v1h-1zM101 116h1v1h-1zM104 116h1v1h-1zM28 117h1v1h-1zM38 117h1v1h-1zM45 117h10v1h-10zM85 117h1v1h-1zM92 117h1v1h-1zM27 118h1v1h-1zM30 118h1v1h-1zM43 118h4v1h-4zM56 118h1v1h-1zM67 118h1v1h-1zM72 118h1v1h-1zM89 118h1v1h-1zM93 118h1v1h-1zM99 118h1v1h-1z"/>
<path fill="#F1D302" d="M29 2h21v1h-21zM78 2h21v1h-21zM29 3h21v1h-21zM78 3h21v1h-21zM29 8h21v1h-21zM78 8h21v1h-21zM31 10h1v1h-1zM96 10h1v1h-1zM12 11h1v1h-1zM14 11h1v1h-1zM31 11h1v1h-1zM96 11h1v1h-1zM113 11h1v1h-1zM115 11h1v1h-1zM11 12h1v1h-1zM15 12h1v1h-1zM31 12h1v1h-1zM96 12h1v1h-1zM112 12h1v1h-1zM116 12h1v1h-1zM17 13h15v1h-15zM96 13h15v1h-15zM11 14h1v1h-1zM15 14h1v1h-1zM31 14h1v1h-1zM96 14h1v1h-1zM112 14h1v1h-1zM116 14h1v1h-1zM12 15h1v1h-1zM14 15h1v1h-1zM31 15h1v1h-1zM96 15h1v1h-1zM113 15h1v1h-1zM115 15h1v1h-1zM31 16h1v1h-1zM96 16h1v1h-1zM13 17h1v1h-1zM114 17h1v1h-1zM13 18h1v1h-1zM114 18h1v1h-1zM13 19h1v1h-1zM114 19h1v1h-1zM13 20h1v1h-1zM114 20h1v1h-1zM13 21h1v1h-1zM114 21h1v1h-1zM13 22h1v1h-1zM114 22h1v1h-1zM13 23h1v1h-1zM114 23h1v1h-1zM13 24h1v1h-1zM114 24h1v1h-1zM13 25h1v1h-1zM114 25h1v1h-1zM13 26h1v1h-1zM114 26h1v1h-1zM13 27h1v1h-1zM114 27h1v1h-1zM13 28h1v1h-1zM114 28h1v1h-1zM2 29h2v1h-2zM8 29h1v1h-1zM13 29h1v1h-1zM114 29h1v1h-1zM119 29h1v1h-1zM124 29h2v1h-2zM2 30h2v1h-2zM8 30h1v1h-1zM13 30h1v1h-1zM114 30h1v1h-1zM119 30h1v1h-1zM124 30h2v1h-2zM2 31h2v1h-2zM8 31h1v1h-1zM10 31h7v1h-7zM111 31h7v1h-7zM119 31h1v1h-1zM124 31h2v1h-2zM2 32h2v1h-2zM8 32h1v1h-1zM119 32h1v1h-1zM124 32h2v1h-2zM2 33h2v1h-2zM8 33h1v1h-1zM119 33h1v1h-1zM124 33h2v1h-2zM2 34h2v1h-2zM8 34h1v1h-1zM119 34h1v1h-1zM124 34h2v1h-2zM2 35h2v1h-2zM8 35h1v1h-1zM119 35h1v1h-1zM124 35h2v1h-2zM2 36h2v1h-2zM8 36h1v1h-1zM119 36h1v1h-1zM124 36h2v1h-2zM2 37h2v1h-2zM8 37h1v1h-1zM119 37h1v1h-1zM124 37h2v1h-2zM2 38h2v1h-2zM8 38h1v1h-1zM119 38h1v1h-1zM124 38h2v1h-2zM2 39h2v1h-2zM8 39h1v1h-1zM119 39h1v1h-1zM124 39h2v1h-2zM2 40h2v1h-2zM8 40h1v1h-1zM119 40h1v1h-1zM124 40h2v1h-2zM2 41h2v1h-2zM8 41h1v1h-1zM119 41h1v1h-1zM124 41h2v1h-2zM2 42h2v1h-2zM8 42h1v1h-1zM119 42h1v1h-1zM124 42h2v1h-2zM2 43h2v1h-2zM8 43h1v1h-1zM119 43h1v1h-1zM124 43h2v1h-2zM2 44h2v1h-2zM8 44h1v1h-1zM119 44h1v1h-1zM124 44h2v1h-2zM2 45h2v1h-2zM8 45h1v1h-1zM119 45h1v1h-1zM124 45h2v1h-2zM2 46h2v1h-2zM8 46h1v1h-1zM119 46h1v1h-1zM124 46h2v1h-2zM2 47h2v1h-2zM8 47h1v1h-1zM119 47h1v1h-1zM124 47h2v1h-2zM2 48h2v1h-2zM8 48h1v1h-1zM119 48h1v1h-1zM124 48h2v1h-2zM2 49h2v1h-2zM8 49h1v1h-1zM119 49h1v1h-1zM124 49h2v1h-2zM2 78h2v1h-2zM8 78h1v1h-1zM119 78h1v1h-1zM124 78h2v1h-2zM2 79h2v1h-2zM8 79h1v1h-1zM119 79h1v1h-1zM124 79h2v1h-2zM2 80h2v1h-2zM8 80h1v1h-1zM119 80h1v1h-1zM124 80h2v1h-2zM2 81h2v1h-2zM8 81h1v1h-1zM119 81h1v1h-1zM124 81h2v1h-2zM2 82h2v1h-2zM8 82h1v1h-1zM119 82h1v1h-1zM124 82h2v1h-2zM2 83h2v1h-2zM8 83h1v1h-1zM119 83h1v1h-1zM124 83h2v1h-2zM2 84h2v1h-2zM8 84h1v1h-1zM119 84h1v1h-1zM124 84h2v1h-2zM2 85h2v1h-2zM8 85h1v1h-1zM119 85h1v1h-1zM124 85h2v1h-2zM2 86h2v1h-2zM8 86h1v1h-1zM119 86h1v1h-1zM124 86h2v1h-2zM2 87h2v1h-2zM8 87h1v1h-1zM119 87h1v1h-1zM124 87h2v1h-2zM2 88h2v1h-2zM8 88h1v1h-1zM119 88h1v1h-1zM124 88h2v1h-2zM2 89h2v1h-2zM8 89h1v1h-1zM119 89h1v1h-1zM124 89h2v1h-2zM2 90h2v1h-2zM8 90h1v1h-1zM119 90h1v1h-1zM124 90h2v1h-2zM2 91h2v1h-2zM8 91h1v1h-1zM119 91h1v1h-1zM124 91h2v1h-2zM2 92h2v1h-2zM8 92h1v1h-1zM119 92h1v1h-1zM124 92h2v1h-2zM2 93h2v1h-2zM8 93h1v1h-1zM119 93h1v1h-1zM124 93h2v1h-2zM2 94h2v1h-2zM8 94h1v1h-1zM119 94h1v1h-1zM124 94h2v1h-2zM2 95h2v1h-2zM8 95h1v1h-1zM119 95h1v1h-1zM124 95h2v1h-2zM2 96h2v1h-2zM8 96h1v1h-1zM10 96h7v1h-7zM111 96h7v1h-7zM119 96h1v1h-1zM124 96h2v1h-2zM2 97h2v1h-2zM8 97h1v1h-1zM13 97h1v1h-1zM114 97h1v1h-1zM119 97h1v1h-1zM124 97h2v1h-2zM2 98h2v1h-2zM8 98h1v1h-1zM13 98h1v1h-1zM114 98h1v1h-1zM119 98h1v1h-1zM124 98h2v1h-2zM13 99h1v1h-1zM114 99h1v1h-1zM13 100h1v1h-1zM114 100h1v1h-1zM13 101h1v1h-1zM114 101h1v1h-1zM13 102h1v1h-1zM114 102h1v1h-1zM13 103h1v1h-1zM114 103h1v1h-1zM13 104h1v1h-1zM114 104h1v1h-1zM13 105h1v1h-1zM114 105h1v1h-1zM13 106h1v1h-1zM114 106h1v1h-1zM13 107h1v1h-1zM114 107h1v1h-1zM13 108h1v1h-1zM114 108h1v1h-1zM13 109h1v1h-1zM114 109h1v1h-1zM13 110h1v1h-1zM114 110h1v1h-1zM31 111h1v1h-1zM96 111h1v1h-1zM12 112h1v1h-1zM14 112h1v1h-1zM31 112h1v1h-1zM96 112h1v1h-1zM113 112h1v1h-1zM115 112h1v1h-1zM11 113h1v1h-1zM15 113h1v1h-1zM31 113h1v1h-1zM96 113h1v1h-1zM112 113h1v1h-1zM116 113h1v1h-1zM17 114h15v1h-15zM96 114h15v1h-15zM11 115h1v1h-1zM15 115h1v1h-1zM31 115h1v1h-1zM96 115h1v1h-1zM112 115h1v1h-1zM116 115h1v1h-1zM12 116h1v1h-1zM14 116h1v1h-1zM31 116h1v1h-1zM96 116h1v1h-1zM113 116h1v1h-1zM115 116h1v1h-1zM31 117h1v1h-1zM96 117h1v1h-1zM29 119h21v1h-21zM78 119h21v1h-21zM29 124h21v1h-21zM78 124h21v1h-21zM29 125h21v1h-21zM78 125h21v1h-21z"/>
<path fill="#231D1E" d="M59 12h1v1h-1zM61 12h1v1h-1zM71 14h1v1h-1zM76 19h1v1h-1zM53 21h1v1h-1zM48 22h1v1h-1zM52 23h1v1h-1zM52 24h1v1h-1zM47 29h1v1h-1zM78 29h1v1h-1zM50 30h1v1h-1zM50 34h1v1h-1zM78 34h1v1h-1zM49 36h1v1h-1zM49 37h1v1h-1zM53 45h1v1h-1zM73 45h1v1h-1zM68 48h1v1h-1zM67 49h1v1h-1zM52 50h1v1h-1zM65 50h1v1h-1zM51 51h1v1h-1zM73 51h1v1h-1zM52 52h1v1h-1zM48 53h1v1h-1zM74 53h1v1h-1zM45 55h3v1h-3zM42 56h1v1h-1zM53 56h1v1h-1zM37 57h1v1h-1zM44 57h3v1h-3zM81 57h1v1h-1zM88 57h1v1h-1zM55 58h1v1h-1zM71 58h1v1h-1zM81 58h1v1h-1zM84 59h1v1h-1zM41 60h1v1h-1zM57 60h1v1h-1zM29 61h1v1h-1zM34 61h1v1h-1zM50 61h1v1h-1zM58 61h1v1h-1zM68 61h1v1h-1zM91 61h1v1h-1zM47 62h1v1h-1zM49 62h1v1h-1zM69 62h2v1h-2zM72 62h1v1h-1zM76 62h1v1h-1zM83 62h2v1h-2zM95 62h1v1h-1zM35 63h1v1h-1zM48 63h2v1h-2zM73 63h2v1h-2zM84 63h1v1h-1zM30 64h1v1h-1zM36 64h1v1h-1zM48 64h1v1h-1zM54 64h1v1h-1zM73 64h2v1h-2zM79 64h1v1h-1zM84 64h2v1h-2zM37 65h1v1h-1zM48 65h1v1h-1zM54 65h1v1h-1zM56 65h1v1h-1zM72 65h1v1h-1zM80 65h2v1h-2zM84 65h2v1h-2zM26 66h1v1h-1zM32 66h1v1h-1zM55 66h1v1h-1zM58 66h1v1h-1zM82 66h2v1h-2zM85 66h1v1h-1zM33 67h1v1h-1zM83 67h1v1h-1zM25 68h1v1h-1zM43 68h1v1h-1zM65 68h1v1h-1zM83 68h3v1h-3zM25 69h1v1h-1zM43 69h1v1h-1zM51 69h2v1h-2zM58 69h1v1h-1zM60 69h1v1h-1zM83 69h2v1h-2zM40 70h1v1h-1zM51 70h2v1h-2zM59 70h1v1h-1zM83 70h2v1h-2zM44 71h1v1h-1zM51 71h2v1h-2zM70 71h1v1h-1zM83 71h2v1h-2zM44 72h1v1h-1zM70 72h1v1h-1zM82 72h3v1h-3zM92 72h1v1h-1zM27 73h1v1h-1zM44 73h1v1h-1zM70 73h1v1h-1zM82 73h1v1h-1zM82 74h1v1h-1zM101 74h1v1h-1zM69 75h1v1h-1zM102 75h1v1h-1zM41 76h1v1h-1zM54 76h1v1h-1zM69 76h1v1h-1zM45 77h1v1h-1zM54 77h1v1h-1zM69 77h1v1h-1zM27 78h1v1h-1zM43 78h1v1h-1zM45 78h1v1h-1zM54 78h1v1h-1zM69 78h1v1h-1zM27 79h1v1h-1zM43 79h1v1h-1zM45 79h1v1h-1zM54 79h1v1h-1zM87 79h1v1h-1zM103 79h1v1h-1zM45 80h1v1h-1zM55 80h1v1h-1zM45 81h1v1h-1zM55 81h1v1h-1zM67 81h1v1h-1zM43 82h1v1h-1zM42 83h1v1h-1zM88 83h1v1h-1zM90 83h1v1h-1zM24 84h1v1h-1zM45 84h1v1h-1zM87 84h1v1h-1zM23 85h2v1h-2zM46 85h1v1h-1zM24 86h1v1h-1zM89 86h2v1h-2zM89 87h1v1h-1zM106 88h1v1h-1zM46 89h3v1h-3zM86 89h1v1h-1zM46 90h3v1h-3zM67 90h1v1h-1zM90 90h2v1h-2zM20 91h1v1h-1zM46 91h3v1h-3zM90 91h2v1h-2zM106 91h1v1h-1zM24 92h2v1h-2zM46 92h4v1h-4zM82 92h3v1h-3zM106 92h1v1h-1zM24 93h1v1h-1zM47 93h3v1h-3zM51 93h2v1h-2zM68 93h1v1h-1zM106 93h1v1h-1zM23 94h3v1h-3zM48 94h5v1h-5zM56 94h1v1h-1zM80 94h2v1h-2zM106 94h1v1h-1zM23 95h2v1h-2zM26 95h1v1h-1zM40 95h1v1h-1zM48 95h3v1h-3zM52 95h1v1h-1zM56 95h1v1h-1zM68 95h1v1h-1zM76 95h1v1h-1zM106 95h1v1h-1zM23 96h2v1h-2zM26 96h1v1h-1zM39 96h1v1h-1zM50 96h7v1h-7zM63 96h1v1h-1zM70 96h4v1h-4zM76 96h2v1h-2zM100 96h1v1h-1zM102 96h1v1h-1zM106 96h1v1h-1zM20 97h1v1h-1zM23 97h3v1h-3zM30 97h1v1h-1zM37 97h1v1h-1zM54 97h3v1h-3zM62 97h2v1h-2zM71 97h3v1h-3zM97 97h1v1h-1zM106 97h1v1h-1zM20 98h1v1h-1zM24 98h1v1h-1zM29 98h1v1h-1zM55 98h2v1h-2zM60 98h3v1h-3zM20 99h1v1h-1zM23 99h2v1h-2zM67 99h1v1h-1zM20 100h1v1h-1zM23 100h2v1h-2zM47 101h1v1h-1zM52 101h1v1h-1zM56 101h1v1h-1zM70 101h2v1h-2zM84 101h1v1h-1zM21 102h1v1h-1zM23 102h1v1h-1zM25 102h1v1h-1zM52 102h1v1h-1zM58 102h1v1h-1zM63 102h2v1h-2zM77 102h1v1h-1zM80 102h1v1h-1zM23 103h1v1h-1zM29 103h1v1h-1zM45 103h1v1h-1zM51 103h2v1h-2zM58 103h1v1h-1zM63 103h2v1h-2zM106 103h1v1h-1zM23 104h2v1h-2zM51 104h2v1h-2zM57 104h2v1h-2zM63 104h2v1h-2zM70 104h1v1h-1zM23 105h1v1h-1zM26 105h1v1h-1zM51 105h1v1h-1zM57 105h2v1h-2zM63 105h1v1h-1zM70 105h1v1h-1zM28 106h1v1h-1zM49 106h2v1h-2zM57 106h2v1h-2zM63 106h1v1h-1zM69 106h2v1h-2zM25 107h2v1h-2zM50 107h1v1h-1zM57 107h1v1h-1zM63 107h1v1h-1zM69 107h2v1h-2zM24 108h1v1h-1zM27 108h2v1h-2zM32 108h1v1h-1zM56 108h1v1h-1zM63 108h1v1h-1zM69 108h1v1h-1zM23 109h1v1h-1zM27 109h1v1h-1zM30 109h1v1h-1zM63 109h1v1h-1zM69 109h1v1h-1zM24 110h1v1h-1zM26 110h1v1h-1zM28 110h1v1h-1zM30 110h2v1h-2zM36 110h1v1h-1zM47 110h2v1h-2zM61 110h3v1h-3zM68 110h2v1h-2zM47 111h2v1h-2zM61 111h2v1h-2zM68 111h1v1h-1zM25 112h3v1h-3zM46 112h4v1h-4zM61 112h2v1h-2zM61 113h2v1h-2zM71 113h1v1h-1zM81 113h1v1h-1zM33 114h1v1h-1zM36 114h1v1h-1zM59 114h1v1h-1zM61 114h1v1h-1zM33 115h1v1h-1zM37 115h3v1h-3zM59 115h3v1h-3zM70 115h1v1h-1zM35 116h1v1h-1zM41 116h2v1h-2zM58 116h2v1h-2zM61 116h1v1h-1zM69 116h1v1h-1zM90 116h3v1h-3zM94 116h1v1h-1zM33 117h1v1h-1zM57 117h3v1h-3zM68 117h1v1h-1zM77 117h1v1h-1zM79 117h2v1h-2zM32 118h1v1h-1zM35 118h4v1h-4zM57 118h3v1h-3zM77 118h5v1h-5zM90 118h1v1h-1z"/>
<path fill="#292422" d="M65 13h1v1h-1zM56 17h1v1h-1zM54 19h1v1h-1zM47 25h1v1h-1zM77 26h1v1h-1zM51 28h1v1h-1zM47 31h1v1h-1zM79 32h1v1h-1zM51 34h1v1h-1zM49 38h1v1h-1zM71 46h1v1h-1zM60 48h1v1h-1zM48 52h1v1h-1zM75 53h1v1h-1zM74 56h1v1h-1zM38 57h1v1h-1zM73 57h1v1h-1zM39 58h1v1h-1zM72 58h1v1h-1zM87 58h1v1h-1zM85 60h1v1h-1zM93 60h1v1h-1zM41 61h1v1h-1zM78 61h1v1h-1zM34 62h1v1h-1zM41 62h1v1h-1zM50 62h1v1h-1zM88 62h1v1h-1zM30 63h1v1h-1zM39 63h1v1h-1zM43 63h1v1h-1zM69 63h2v1h-2zM88 63h1v1h-1zM43 64h1v1h-1zM72 64h1v1h-1zM86 64h1v1h-1zM96 64h1v1h-1zM46 65h1v1h-1zM68 65h1v1h-1zM78 65h1v1h-1zM88 65h1v1h-1zM42 66h1v1h-1zM48 66h1v1h-1zM59 66h1v1h-1zM66 66h1v1h-1zM68 66h1v1h-1zM78 66h1v1h-1zM92 66h1v1h-1zM35 67h1v1h-1zM72 67h1v1h-1zM78 67h1v1h-1zM34 68h1v1h-1zM52 68h1v1h-1zM59 68h1v1h-1zM78 68h1v1h-1zM41 69h1v1h-1zM56 69h1v1h-1zM71 69h1v1h-1zM25 70h1v1h-1zM37 70h1v1h-1zM41 70h1v1h-1zM49 70h1v1h-1zM68 70h1v1h-1zM96 70h1v1h-1zM59 71h1v1h-1zM68 71h1v1h-1zM26 72h1v1h-1zM49 72h1v1h-1zM61 72h1v1h-1zM29 73h1v1h-1zM36 73h1v1h-1zM49 73h1v1h-1zM67 73h1v1h-1zM40 74h1v1h-1zM52 74h1v1h-1zM60 74h1v1h-1zM69 74h1v1h-1zM72 74h1v1h-1zM94 74h1v1h-1zM25 75h1v1h-1zM34 75h1v1h-1zM60 75h1v1h-1zM72 75h1v1h-1zM83 75h1v1h-1zM93 75h1v1h-1zM101 75h1v1h-1zM25 76h1v1h-1zM34 76h1v1h-1zM50 76h1v1h-1zM72 76h1v1h-1zM74 76h1v1h-1zM92 76h1v1h-1zM25 77h1v1h-1zM34 77h1v1h-1zM50 77h1v1h-1zM72 77h1v1h-1zM74 77h1v1h-1zM50 78h1v1h-1zM74 78h1v1h-1zM84 78h1v1h-1zM31 79h1v1h-1zM50 79h1v1h-1zM52 79h1v1h-1zM59 79h1v1h-1zM74 79h1v1h-1zM99 79h1v1h-1zM25 80h1v1h-1zM38 80h1v1h-1zM50 80h1v1h-1zM52 80h1v1h-1zM59 80h1v1h-1zM74 80h1v1h-1zM25 81h1v1h-1zM31 81h1v1h-1zM40 81h1v1h-1zM50 81h1v1h-1zM52 81h1v1h-1zM59 81h1v1h-1zM65 81h2v1h-2zM74 81h1v1h-1zM25 82h1v1h-1zM29 82h1v1h-1zM38 82h1v1h-1zM46 82h1v1h-1zM50 82h1v1h-1zM52 82h1v1h-1zM59 82h1v1h-1zM74 82h1v1h-1zM91 82h1v1h-1zM104 82h1v1h-1zM25 83h1v1h-1zM32 83h1v1h-1zM39 83h1v1h-1zM46 83h1v1h-1zM50 83h1v1h-1zM52 83h1v1h-1zM59 83h1v1h-1zM74 83h1v1h-1zM23 84h1v1h-1zM25 84h1v1h-1zM32 84h1v1h-1zM74 84h1v1h-1zM25 85h1v1h-1zM32 85h1v1h-1zM74 85h1v1h-1zM92 85h1v1h-1zM102 85h1v1h-1zM22 86h1v1h-1zM25 86h1v1h-1zM41 86h1v1h-1zM48 86h1v1h-1zM55 86h1v1h-1zM71 86h1v1h-1zM92 86h1v1h-1zM22 87h1v1h-1zM36 87h1v1h-1zM41 87h1v1h-1zM48 87h1v1h-1zM50 87h1v1h-1zM55 87h1v1h-1zM71 87h1v1h-1zM79 87h1v1h-1zM92 87h1v1h-1zM94 87h1v1h-1zM22 88h1v1h-1zM27 88h1v1h-1zM41 88h1v1h-1zM47 88h2v1h-2zM50 88h1v1h-1zM71 88h1v1h-1zM79 88h1v1h-1zM92 88h1v1h-1zM100 88h1v1h-1zM22 89h1v1h-1zM41 89h1v1h-1zM63 89h1v1h-1zM71 89h1v1h-1zM79 89h1v1h-1zM91 89h1v1h-1zM100 89h1v1h-1zM22 90h1v1h-1zM27 90h1v1h-1zM41 90h1v1h-1zM52 90h1v1h-1zM63 90h1v1h-1zM71 90h1v1h-1zM79 90h1v1h-1zM100 90h1v1h-1zM52 91h1v1h-1zM63 91h1v1h-1zM71 91h1v1h-1zM79 91h1v1h-1zM100 91h1v1h-1zM22 92h1v1h-1zM41 92h1v1h-1zM51 92h1v1h-1zM63 92h1v1h-1zM71 92h1v1h-1zM79 92h1v1h-1zM100 92h1v1h-1zM22 93h1v1h-1zM31 93h1v1h-1zM34 93h1v1h-1zM41 93h1v1h-1zM55 93h1v1h-1zM71 93h1v1h-1zM100 93h1v1h-1zM20 94h1v1h-1zM22 94h1v1h-1zM29 94h1v1h-1zM60 94h1v1h-1zM63 94h1v1h-1zM71 94h1v1h-1zM96 94h1v1h-1zM100 94h1v1h-1zM20 95h1v1h-1zM22 95h1v1h-1zM96 95h1v1h-1zM100 95h1v1h-1zM22 96h1v1h-1zM42 96h1v1h-1zM62 96h1v1h-1zM96 96h1v1h-1zM104 96h1v1h-1zM22 97h1v1h-1zM22 98h1v1h-1zM22 99h1v1h-1zM28 99h1v1h-1zM82 99h1v1h-1zM35 100h1v1h-1zM80 100h1v1h-1zM31 101h1v1h-1zM65 101h1v1h-1zM82 101h2v1h-2zM45 102h1v1h-1zM70 102h1v1h-1zM104 102h1v1h-1zM26 103h1v1h-1zM37 103h2v1h-2zM56 103h1v1h-1zM70 103h1v1h-1zM82 103h3v1h-3zM29 104h1v1h-1zM50 104h1v1h-1zM62 104h1v1h-1zM46 105h1v1h-1zM56 105h1v1h-1zM74 105h1v1h-1zM77 105h1v1h-1zM30 106h1v1h-1zM79 106h1v1h-1zM30 107h1v1h-1zM62 107h1v1h-1zM39 108h1v1h-1zM48 108h1v1h-1zM54 108h2v1h-2zM62 108h1v1h-1zM81 108h1v1h-1zM33 109h1v1h-1zM37 110h1v1h-1zM44 110h1v1h-1zM46 110h1v1h-1zM49 110h1v1h-1zM53 110h4v1h-4zM58 110h2v1h-2zM72 110h1v1h-1zM81 110h4v1h-4zM86 110h1v1h-1zM23 111h1v1h-1zM34 111h1v1h-1zM69 111h1v1h-1zM42 112h1v1h-1zM55 112h1v1h-1zM77 112h1v1h-1zM47 113h1v1h-1zM66 113h1v1h-1zM68 113h1v1h-1zM83 113h1v1h-1zM40 114h3v1h-3zM58 114h1v1h-1zM64 114h1v1h-1zM77 114h1v1h-1zM35 115h1v1h-1zM25 116h3v1h-3zM43 116h1v1h-1zM73 116h1v1h-1zM84 116h1v1h-1zM26 117h1v1h-1zM39 117h1v1h-1zM55 117h1v1h-1zM63 117h1v1h-1zM87 117h1v1h-1zM100 117h1v1h-1zM28 118h2v1h-2zM31 118h1v1h-1zM47 118h1v1h-1zM68 118h1v1h-1zM98 118h1v1h-1z"/>
<path fill="#241F1F" d="M62 12h1v1h-1zM74 17h1v1h-1zM57 18h2v1h-2zM60 18h1v1h-1zM66 18h1v1h-1zM74 42h1v1h-1zM72 45h1v1h-1zM61 49h2v1h-2zM66 49h1v1h-1zM52 51h1v1h-1zM50 52h2v1h-2zM74 52h1v1h-1zM49 53h3v1h-3zM48 54h5v1h-5zM48 55h5v1h-5zM74 55h1v1h-1zM46 56h7v1h-7zM43 57h1v1h-1zM47 57h7v1h-7zM82 57h1v1h-1zM84 57h1v1h-1zM86 57h1v1h-1zM46 58h9v1h-9zM83 59h1v1h-1zM30 60h1v1h-1zM33 60h1v1h-1zM54 60h1v1h-1zM84 60h1v1h-1zM46 61h1v1h-1zM70 61h1v1h-1zM84 61h2v1h-2zM35 62h1v1h-1zM42 62h1v1h-1zM60 62h1v1h-1zM71 62h1v1h-1zM85 62h1v1h-1zM42 63h1v1h-1zM50 63h1v1h-1zM53 63h1v1h-1zM66 63h1v1h-1zM75 63h4v1h-4zM83 63h1v1h-1zM85 63h1v1h-1zM49 64h2v1h-2zM53 64h1v1h-1zM65 64h1v1h-1zM82 64h2v1h-2zM31 65h1v1h-1zM36 65h1v1h-1zM42 65h1v1h-1zM49 65h2v1h-2zM55 65h1v1h-1zM82 65h2v1h-2zM33 66h1v1h-1zM50 66h2v1h-2zM56 66h1v1h-1zM72 66h1v1h-1zM80 66h1v1h-1zM84 66h1v1h-1zM26 67h1v1h-1zM50 67h2v1h-2zM82 67h1v1h-1zM84 67h2v1h-2zM50 68h2v1h-2zM82 68h1v1h-1zM93 68h1v1h-1zM82 69h1v1h-1zM85 69h1v1h-1zM29 70h1v1h-1zM82 70h1v1h-1zM85 70h1v1h-1zM93 70h1v1h-1zM31 71h1v1h-1zM40 71h1v1h-1zM82 71h1v1h-1zM85 71h1v1h-1zM41 72h1v1h-1zM51 72h2v1h-2zM85 72h1v1h-1zM91 72h1v1h-1zM52 73h2v1h-2zM83 73h2v1h-2zM91 73h1v1h-1zM95 73h1v1h-1zM26 74h2v1h-2zM44 74h1v1h-1zM53 74h1v1h-1zM70 74h1v1h-1zM83 74h2v1h-2zM27 75h1v1h-1zM44 75h1v1h-1zM82 75h1v1h-1zM84 75h1v1h-1zM27 76h1v1h-1zM44 76h1v1h-1zM27 77h1v1h-1zM41 77h1v1h-1zM44 77h1v1h-1zM39 78h1v1h-1zM62 78h1v1h-1zM91 78h1v1h-1zM94 78h1v1h-1zM35 79h1v1h-1zM55 79h1v1h-1zM69 79h1v1h-1zM88 79h1v1h-1zM27 80h1v1h-1zM54 80h1v1h-1zM35 81h1v1h-1zM54 81h1v1h-1zM23 82h1v1h-1zM45 82h1v1h-1zM55 82h1v1h-1zM67 82h1v1h-1zM23 83h1v1h-1zM45 83h1v1h-1zM55 83h2v1h-2zM67 83h1v1h-1zM39 84h1v1h-1zM46 84h1v1h-1zM55 84h2v1h-2zM66 84h2v1h-2zM90 84h1v1h-1zM56 85h1v1h-1zM66 85h2v1h-2zM90 85h1v1h-1zM104 85h2v1h-2zM46 86h1v1h-1zM56 86h1v1h-1zM67 86h1v1h-1zM82 86h1v1h-1zM24 87h1v1h-1zM46 87h1v1h-1zM56 87h1v1h-1zM67 87h1v1h-1zM82 87h1v1h-1zM20 88h1v1h-1zM24 88h2v1h-2zM30 88h1v1h-1zM46 88h1v1h-1zM67 88h1v1h-1zM82 88h1v1h-1zM89 88h1v1h-1zM20 89h1v1h-1zM24 89h2v1h-2zM49 89h1v1h-1zM58 89h1v1h-1zM67 89h1v1h-1zM89 89h1v1h-1zM20 90h1v1h-1zM24 90h2v1h-2zM49 90h1v1h-1zM58 90h1v1h-1zM89 90h1v1h-1zM24 91h2v1h-2zM49 91h1v1h-1zM59 91h1v1h-1zM82 91h3v1h-3zM50 92h1v1h-1zM25 93h1v1h-1zM50 93h1v1h-1zM56 93h1v1h-1zM79 93h1v1h-1zM81 93h3v1h-3zM96 93h1v1h-1zM47 94h1v1h-1zM55 94h1v1h-1zM68 94h1v1h-1zM79 94h1v1h-1zM82 94h1v1h-1zM25 95h1v1h-1zM51 95h1v1h-1zM53 95h3v1h-3zM60 95h1v1h-1zM63 95h1v1h-1zM69 95h5v1h-5zM77 95h4v1h-4zM25 96h1v1h-1zM60 96h1v1h-1zM74 96h2v1h-2zM94 96h1v1h-1zM53 97h1v1h-1zM60 97h2v1h-2zM95 97h1v1h-1zM45 99h1v1h-1zM61 99h1v1h-1zM47 100h1v1h-1zM72 100h2v1h-2zM77 100h3v1h-3zM24 101h1v1h-1zM61 101h1v1h-1zM24 102h1v1h-1zM26 102h1v1h-1zM43 102h1v1h-1zM46 102h1v1h-1zM53 102h1v1h-1zM78 102h2v1h-2zM25 103h1v1h-1zM76 103h1v1h-1zM85 103h1v1h-1zM25 104h2v1h-2zM77 104h1v1h-1zM25 105h1v1h-1zM36 105h1v1h-1zM45 105h1v1h-1zM50 105h1v1h-1zM64 105h1v1h-1zM80 105h2v1h-2zM22 106h1v1h-1zM25 106h1v1h-1zM29 106h1v1h-1zM33 106h1v1h-1zM38 106h2v1h-2zM51 106h1v1h-1zM64 106h1v1h-1zM74 106h1v1h-1zM78 106h1v1h-1zM22 107h1v1h-1zM56 107h1v1h-1zM64 107h1v1h-1zM77 107h1v1h-1zM22 108h1v1h-1zM26 108h1v1h-1zM29 108h1v1h-1zM49 108h1v1h-1zM57 108h1v1h-1zM64 108h1v1h-1zM22 109h1v1h-1zM25 109h1v1h-1zM34 109h1v1h-1zM40 109h1v1h-1zM42 109h1v1h-1zM49 109h2v1h-2zM62 109h1v1h-1zM78 109h2v1h-2zM22 110h2v1h-2zM25 110h1v1h-1zM27 111h1v1h-1zM39 111h1v1h-1zM23 112h1v1h-1zM29 112h1v1h-1zM35 112h2v1h-2zM43 112h1v1h-1zM34 113h4v1h-4zM60 113h1v1h-1zM60 114h1v1h-1zM76 114h1v1h-1zM79 114h1v1h-1zM78 115h1v1h-1zM60 116h1v1h-1zM76 116h1v1h-1zM34 117h2v1h-2zM44 117h1v1h-1zM56 117h1v1h-1zM60 117h1v1h-1zM76 117h1v1h-1zM103 117h1v1h-1zM25 118h1v1h-1zM42 118h1v1h-1zM69 118h1v1h-1zM94 118h1v1h-1z"/>
<path fill="#1F1B1D" d="M64 13h1v1h-1zM51 17h1v1h-1zM55 19h1v1h-1zM54 20h1v1h-1zM52 25h1v1h-1zM52 26h1v1h-1zM47 28h1v1h-1zM51 29h1v1h-1zM75 29h1v1h-1zM76 33h1v1h-1zM52 37h1v1h-1zM50 39h1v1h-1zM53 43h1v1h-1zM74 43h1v1h-1zM54 45h1v1h-1zM57 46h1v1h-1zM58 47h1v1h-1zM70 47h1v1h-1zM53 49h1v1h-1zM68 49h1v1h-1zM60 50h1v1h-1zM64 50h1v1h-1zM49 51h1v1h-1zM77 52h1v1h-1zM52 53h1v1h-1zM46 54h2v1h-2zM53 54h1v1h-1zM74 54h1v1h-1zM53 55h1v1h-1zM41 56h1v1h-1zM43 56h1v1h-1zM45 56h1v1h-1zM73 56h1v1h-1zM89 58h2v1h-2zM82 60h2v1h-2zM49 61h1v1h-1zM71 61h1v1h-1zM48 62h1v1h-1zM74 62h2v1h-2zM81 62h2v1h-2zM54 63h1v1h-1zM68 63h1v1h-1zM55 64h1v1h-1zM67 64h1v1h-1zM80 64h1v1h-1zM26 65h1v1h-1zM30 65h1v1h-1zM28 66h1v1h-1zM31 66h1v1h-1zM37 66h1v1h-1zM57 66h1v1h-1zM90 66h1v1h-1zM94 66h1v1h-1zM28 67h2v1h-2zM58 67h1v1h-1zM65 67h1v1h-1zM90 67h1v1h-1zM99 67h1v1h-1zM58 68h1v1h-1zM90 68h1v1h-1zM27 69h1v1h-1zM93 69h1v1h-1zM28 70h1v1h-1zM61 70h1v1h-1zM88 70h1v1h-1zM88 71h1v1h-1zM95 72h1v1h-1zM41 73h1v1h-1zM35 74h1v1h-1zM26 75h1v1h-1zM26 76h1v1h-1zM26 77h1v1h-1zM38 77h1v1h-1zM62 77h2v1h-2zM91 77h1v1h-1zM26 78h1v1h-1zM63 78h1v1h-1zM90 78h1v1h-1zM24 79h1v1h-1zM26 79h1v1h-1zM63 79h1v1h-1zM91 79h1v1h-1zM24 80h1v1h-1zM43 80h1v1h-1zM104 80h1v1h-1zM24 81h1v1h-1zM41 81h1v1h-1zM91 81h2v1h-2zM104 81h1v1h-1zM24 82h1v1h-1zM24 83h1v1h-1zM65 83h1v1h-1zM87 83h1v1h-1zM42 84h1v1h-1zM45 85h1v1h-1zM23 86h1v1h-1zM45 86h1v1h-1zM66 86h1v1h-1zM23 87h1v1h-1zM43 87h1v1h-1zM45 87h1v1h-1zM66 87h1v1h-1zM90 87h1v1h-1zM23 88h1v1h-1zM45 88h1v1h-1zM63 88h1v1h-1zM66 88h1v1h-1zM86 88h1v1h-1zM90 88h1v1h-1zM23 89h1v1h-1zM66 89h1v1h-1zM90 89h1v1h-1zM106 89h1v1h-1zM23 90h1v1h-1zM106 90h1v1h-1zM23 91h1v1h-1zM67 91h1v1h-1zM85 91h1v1h-1zM89 91h1v1h-1zM23 92h1v1h-1zM67 92h1v1h-1zM23 93h1v1h-1zM43 93h1v1h-1zM67 93h1v1h-1zM84 93h1v1h-1zM33 94h1v1h-1zM35 94h2v1h-2zM43 94h1v1h-1zM67 94h1v1h-1zM83 94h1v1h-1zM29 95h2v1h-2zM38 95h1v1h-1zM59 95h1v1h-1zM81 95h2v1h-2zM94 95h1v1h-1zM31 96h1v1h-1zM59 96h1v1h-1zM69 96h1v1h-1zM78 96h1v1h-1zM80 96h1v1h-1zM93 96h1v1h-1zM35 97h1v1h-1zM43 97h1v1h-1zM52 97h1v1h-1zM59 97h1v1h-1zM104 97h1v1h-1zM23 98h1v1h-1zM27 98h1v1h-1zM41 98h1v1h-1zM27 99h1v1h-1zM38 99h1v1h-1zM46 99h1v1h-1zM55 99h1v1h-1zM60 99h1v1h-1zM36 100h1v1h-1zM48 100h1v1h-1zM54 100h1v1h-1zM65 100h1v1h-1zM68 100h1v1h-1zM25 101h1v1h-1zM53 101h1v1h-1zM76 102h1v1h-1zM21 103h1v1h-1zM57 103h1v1h-1zM21 104h1v1h-1zM27 104h1v1h-1zM27 105h2v1h-2zM24 106h1v1h-1zM26 106h2v1h-2zM77 106h1v1h-1zM86 106h1v1h-1zM24 107h1v1h-1zM27 107h2v1h-2zM74 107h1v1h-1zM106 107h1v1h-1zM25 108h1v1h-1zM74 108h1v1h-1zM26 109h1v1h-1zM28 109h2v1h-2zM73 109h2v1h-2zM29 110h1v1h-1zM73 110h2v1h-2zM24 111h1v1h-1zM26 111h1v1h-1zM29 111h1v1h-1zM63 111h1v1h-1zM72 111h3v1h-3zM28 112h1v1h-1zM34 112h1v1h-1zM68 112h1v1h-1zM73 112h2v1h-2zM33 113h1v1h-1zM72 113h2v1h-2zM77 113h1v1h-1zM34 114h2v1h-2zM71 114h3v1h-3zM84 114h1v1h-1zM71 115h3v1h-3zM83 115h1v1h-1zM28 116h2v1h-2zM34 116h1v1h-1zM40 116h1v1h-1zM70 116h3v1h-3zM79 116h1v1h-1zM93 116h1v1h-1zM29 117h1v1h-1zM36 117h1v1h-1zM69 117h4v1h-4zM78 117h1v1h-1zM84 117h1v1h-1zM91 117h1v1h-1zM26 118h1v1h-1zM33 118h2v1h-2zM39 118h3v1h-3zM70 118h2v1h-2z"/>
<path fill="#1B171C" d="M47 27h1v1h-1zM75 30h1v1h-1zM51 31h1v1h-1zM51 32h1v1h-1zM77 32h1v1h-1zM47 33h3v1h-3zM77 33h1v1h-1zM79 33h1v1h-1zM49 35h1v1h-1zM51 42h1v1h-1zM55 46h1v1h-1zM56 47h2v1h-2zM69 48h1v1h-1zM53 50h1v1h-1zM63 50h1v1h-1zM73 50h1v1h-1zM53 51h1v1h-1zM49 52h1v1h-1zM53 53h1v1h-1zM44 55h1v1h-1zM73 55h1v1h-1zM82 56h1v1h-1zM72 57h1v1h-1zM83 57h1v1h-1zM87 57h1v1h-1zM33 58h1v1h-1zM70 59h1v1h-1zM45 60h1v1h-1zM66 62h1v1h-1zM73 62h1v1h-1zM77 62h1v1h-1zM80 62h1v1h-1zM91 62h1v1h-1zM79 63h1v1h-1zM82 63h1v1h-1zM91 63h1v1h-1zM96 63h1v1h-1zM27 64h1v1h-1zM57 64h1v1h-1zM62 64h1v1h-1zM81 64h1v1h-1zM57 65h1v1h-1zM38 66h1v1h-1zM94 67h1v1h-1zM38 68h1v1h-1zM60 68h1v1h-1zM38 69h1v1h-1zM64 69h1v1h-1zM90 69h1v1h-1zM100 69h1v1h-1zM27 70h1v1h-1zM92 70h1v1h-1zM30 71h1v1h-1zM39 71h1v1h-1zM61 71h1v1h-1zM40 72h1v1h-1zM88 72h1v1h-1zM23 73h1v1h-1zM31 73h1v1h-1zM33 73h1v1h-1zM37 73h1v1h-1zM23 74h1v1h-1zM33 74h2v1h-2zM41 74h1v1h-1zM23 75h1v1h-1zM35 75h2v1h-2zM41 75h1v1h-1zM89 75h1v1h-1zM23 76h1v1h-1zM37 76h1v1h-1zM39 77h1v1h-1zM42 78h1v1h-1zM40 79h1v1h-1zM42 79h1v1h-1zM92 79h1v1h-1zM44 81h1v1h-1zM41 82h1v1h-1zM44 82h1v1h-1zM64 82h1v1h-1zM44 83h1v1h-1zM21 84h1v1h-1zM44 84h1v1h-1zM65 84h1v1h-1zM88 84h1v1h-1zM21 85h1v1h-1zM63 85h1v1h-1zM65 85h1v1h-1zM87 85h3v1h-3zM63 86h1v1h-1zM63 87h1v1h-1zM57 88h1v1h-1zM87 90h2v1h-2zM58 91h1v1h-1zM87 91h2v1h-2zM59 92h1v1h-1zM89 92h1v1h-1zM46 93h1v1h-1zM59 93h1v1h-1zM34 94h1v1h-1zM37 94h1v1h-1zM59 94h1v1h-1zM33 95h5v1h-5zM39 95h1v1h-1zM47 95h1v1h-1zM28 96h2v1h-2zM40 96h1v1h-1zM49 96h1v1h-1zM79 96h1v1h-1zM26 97h3v1h-3zM50 97h2v1h-2zM70 97h1v1h-1zM74 97h4v1h-4zM94 97h1v1h-1zM96 97h1v1h-1zM25 98h2v1h-2zM33 98h1v1h-1zM39 98h2v1h-2zM53 98h2v1h-2zM106 98h1v1h-1zM25 99h2v1h-2zM33 99h1v1h-1zM37 99h1v1h-1zM47 99h1v1h-1zM49 99h2v1h-2zM62 99h1v1h-1zM81 99h1v1h-1zM25 100h2v1h-2zM30 100h1v1h-1zM51 100h1v1h-1zM56 100h1v1h-1zM61 100h1v1h-1zM74 100h1v1h-1zM76 100h1v1h-1zM23 101h1v1h-1zM29 101h1v1h-1zM35 101h1v1h-1zM34 102h1v1h-1zM85 102h1v1h-1zM27 103h1v1h-1zM28 104h1v1h-1zM21 105h1v1h-1zM24 105h1v1h-1zM72 112h1v1h-1zM82 113h1v1h-1zM76 115h1v1h-1zM86 115h1v1h-1zM33 116h1v1h-1zM78 116h1v1h-1zM80 116h1v1h-1zM83 116h1v1h-1zM25 117h1v1h-1zM37 117h1v1h-1zM81 117h1v1h-1zM88 117h1v1h-1zM82 118h1v1h-1zM103 118h1v1h-1z"/>
<path fill="#141119" d="M75 18h1v1h-1zM48 36h1v1h-1zM50 40h1v1h-1zM52 41h1v1h-1zM53 44h1v1h-1zM72 46h1v1h-1zM59 49h1v1h-1zM51 50h1v1h-1zM74 50h1v1h-1zM73 52h1v1h-1zM73 53h1v1h-1zM73 54h1v1h-1zM46 60h8v1h-8zM72 60h4v1h-4zM47 61h2v1h-2zM53 61h3v1h-3zM73 61h5v1h-5zM54 62h3v1h-3zM59 62h1v1h-1zM78 62h2v1h-2zM56 63h1v1h-1zM60 63h2v1h-2zM65 63h1v1h-1zM81 63h1v1h-1zM61 64h1v1h-1zM90 64h1v1h-1zM61 65h4v1h-4zM90 65h1v1h-1zM29 66h2v1h-2zM61 66h3v1h-3zM30 67h2v1h-2zM62 67h2v1h-2zM32 68h1v1h-1zM62 68h1v1h-1zM33 69h1v1h-1zM89 69h1v1h-1zM39 70h1v1h-1zM89 70h1v1h-1zM29 72h3v1h-3zM36 72h1v1h-1zM88 74h1v1h-1zM88 75h1v1h-1zM92 75h1v1h-1zM38 76h1v1h-1zM88 76h1v1h-1zM42 77h1v1h-1zM88 77h1v1h-1zM94 77h1v1h-1zM88 78h1v1h-1zM90 79h1v1h-1zM63 80h1v1h-1zM87 80h1v1h-1zM90 80h1v1h-1zM92 80h1v1h-1zM43 81h1v1h-1zM63 81h1v1h-1zM87 81h1v1h-1zM90 81h1v1h-1zM63 82h1v1h-1zM87 82h1v1h-1zM63 83h2v1h-2zM89 83h1v1h-1zM105 83h1v1h-1zM63 84h2v1h-2zM89 84h1v1h-1zM105 84h1v1h-1zM44 85h1v1h-1zM64 85h1v1h-1zM43 86h2v1h-2zM64 86h1v1h-1zM87 86h2v1h-2zM44 87h1v1h-1zM64 87h2v1h-2zM87 87h2v1h-2zM44 88h1v1h-1zM64 88h2v1h-2zM87 88h2v1h-2zM44 89h1v1h-1zM57 89h1v1h-1zM64 89h2v1h-2zM44 90h2v1h-2zM57 90h1v1h-1zM64 90h2v1h-2zM44 91h2v1h-2zM57 91h1v1h-1zM64 91h3v1h-3zM86 91h1v1h-1zM44 92h2v1h-2zM57 92h2v1h-2zM64 92h3v1h-3zM85 92h2v1h-2zM44 93h2v1h-2zM57 93h2v1h-2zM64 93h3v1h-3zM85 93h4v1h-4zM44 94h2v1h-2zM57 94h2v1h-2zM64 94h3v1h-3zM84 94h4v1h-4zM44 95h3v1h-3zM57 95h2v1h-2zM64 95h4v1h-4zM83 95h3v1h-3zM30 96h1v1h-1zM41 96h1v1h-1zM44 96h4v1h-4zM57 96h2v1h-2zM64 96h4v1h-4zM82 96h3v1h-3zM44 97h6v1h-6zM57 97h2v1h-2zM64 97h5v1h-5zM79 97h5v1h-5zM45 98h8v1h-8zM57 98h3v1h-3zM64 98h7v1h-7zM74 98h9v1h-9zM32 99h1v1h-1zM48 99h1v1h-1zM51 99h3v1h-3zM57 99h3v1h-3zM63 99h2v1h-2zM68 99h12v1h-12zM31 100h1v1h-1zM52 100h2v1h-2zM57 100h4v1h-4zM63 100h2v1h-2zM69 100h2v1h-2zM75 100h1v1h-1zM30 101h1v1h-1zM57 101h1v1h-1zM62 101h3v1h-3zM80 114h4v1h-4zM79 115h4v1h-4zM85 115h1v1h-1zM24 116h1v1h-1zM81 116h2v1h-2zM86 116h4v1h-4zM82 117h1v1h-1zM89 117h1v1h-1zM83 118h1v1h-1z"/>
<path fill="#D9BE00" d="M15 2h14v1h-14zM99 2h14v1h-14zM15 3h14v1h-14zM99 3h14v1h-14zM15 8h14v1h-14zM99 8h14v1h-14zM2 15h2v1h-2zM8 15h1v1h-1zM119 15h1v1h-1zM124 15h2v1h-2zM2 16h2v1h-2zM8 16h1v1h-1zM119 16h1v1h-1zM124 16h2v1h-2zM2 17h2v1h-2zM8 17h1v1h-1zM119 17h1v1h-1zM124 17h2v1h-2zM2 18h2v1h-2zM8 18h1v1h-1zM119 18h1v1h-1zM124 18h2v1h-2zM2 19h2v1h-2zM8 19h1v1h-1zM119 19h1v1h-1zM124 19h2v1h-2zM2 20h2v1h-2zM8 20h1v1h-1zM119 20h1v1h-1zM124 20h2v1h-2zM2 21h2v1h-2zM8 21h1v1h-1zM119 21h1v1h-1zM124 21h2v1h-2zM2 22h2v1h-2zM8 22h1v1h-1zM119 22h1v1h-1zM124 22h2v1h-2zM2 23h2v1h-2zM8 23h1v1h-1zM119 23h1v1h-1zM124 23h2v1h-2zM2 24h2v1h-2zM8 24h1v1h-1zM119 24h1v1h-1zM124 24h2v1h-2zM2 25h2v1h-2zM8 25h1v1h-1zM119 25h1v1h-1zM124 25h2v1h-2zM2 26h2v1h-2zM8 26h1v1h-1zM119 26h1v1h-1zM124 26h2v1h-2zM2 27h2v1h-2zM8 27h1v1h-1zM119 27h1v1h-1zM124 27h2v1h-2zM2 28h2v1h-2zM8 28h1v1h-1zM119 28h1v1h-1zM124 28h2v1h-2zM2 99h2v1h-2zM8 99h1v1h-1zM119 99h1v1h-1zM124 99h2v1h-2zM2 100h2v1h-2zM8 100h1v1h-1zM119 100h1v1h-1zM124 100h2v1h-2zM2 101h2v1h-2zM8 101h1v1h-1zM119 101h1v1h-1zM124 101h2v1h-2zM2 102h2v1h-2zM8 102h1v1h-1zM119 102h1v1h-1zM124 102h2v1h-2zM2 103h2v1h-2zM8 103h1v1h-1zM119 103h1v1h-1zM124 103h2v1h-2zM2 104h2v1h-2zM8 104h1v1h-1zM119 104h1v1h-1zM124 104h2v1h-2zM2 105h2v1h-2zM8 105h1v1h-1zM119 105h1v1h-1zM124 105h2v1h-2zM2 106h2v1h-2zM8 106h1v1h-1zM119 106h1v1h-1zM124 106h2v1h-2zM2 107h2v1h-2zM8 107h1v1h-1zM119 107h1v1h-1zM124 107h2v1h-2zM2 108h2v1h-2zM8 108h1v1h-1zM119 108h1v1h-1zM124 108h2v1h-2zM2 109h2v1h-2zM8 109h1v1h-1zM119 109h1v1h-1zM124 109h2v1h-2zM2 110h2v1h-2zM8 110h1v1h-1zM119 110h1v1h-1zM124 110h2v1h-2zM2 111h2v1h-2zM8 111h1v1h-1zM119 111h1v1h-1zM124 111h2v1h-2zM2 112h2v1h-2zM8 112h1v1h-1zM119 112h1v1h-1zM124 112h2v1h-2zM15 119h14v1h-14zM99 119h14v1h-14zM15 124h14v1h-14zM99 124h14v1h-14zM15 125h14v1h-14zM99 125h14v1h-14z"/>
<path fill="#FFF0A0" d="M50 2h13v1h-13zM66 2h12v1h-12zM50 3h12v1h-12zM67 3h11v1h-11zM50 8h28v1h-28zM2 50h2v1h-2zM8 50h1v1h-1zM119 50h1v1h-1zM124 50h2v1h-2zM2 51h2v1h-2zM8 51h1v1h-1zM119 51h1v1h-1zM124 51h2v1h-2zM2 52h2v1h-2zM8 52h1v1h-1zM119 52h1v1h-1zM124 52h2v1h-2zM2 53h2v1h-2zM8 53h1v1h-1zM119 53h1v1h-1zM124 53h2v1h-2zM2 54h2v1h-2zM8 54h1v1h-1zM119 54h1v1h-1zM124 54h2v1h-2zM2 55h2v1h-2zM8 55h1v1h-1zM119 55h1v1h-1zM124 55h2v1h-2zM2 56h2v1h-2zM8 56h1v1h-1zM119 56h1v1h-1zM124 56h2v1h-2zM2 57h2v1h-2zM8 57h1v1h-1zM119 57h1v1h-1zM124 57h2v1h-2zM2 58h2v1h-2zM8 58h1v1h-1zM119 58h1v1h-1zM124 58h2v1h-2zM2 59h2v1h-2zM8 59h1v1h-1zM119 59h1v1h-1zM124 59h2v1h-2zM2 60h2v1h-2zM8 60h1v1h-1zM119 60h1v1h-1zM124 60h2v1h-2zM2 61h2v1h-2zM8 61h1v1h-1zM119 61h1v1h-1zM124 61h2v1h-2zM2 62h1v1h-1zM8 62h1v1h-1zM119 62h1v1h-1zM125 62h1v1h-1zM8 63h1v1h-1zM119 63h1v1h-1zM8 64h1v1h-1zM119 64h1v1h-1zM8 65h1v1h-1zM119 65h1v1h-1zM2 66h1v1h-1zM8 66h1v1h-1zM119 66h1v1h-1zM125 66h1v1h-1zM2 67h2v1h-2zM8 67h1v1h-1zM119 67h1v1h-1zM124 67h2v1h-2zM2 68h2v1h-2zM8 68h1v1h-1zM119 68h1v1h-1zM124 68h2v1h-2zM2 69h2v1h-2zM8 69h1v1h-1zM119 69h1v1h-1zM124 69h2v1h-2zM2 70h2v1h-2zM8 70h1v1h-1zM119 70h1v1h-1zM124 70h2v1h-2zM2 71h2v1h-2zM8 71h1v1h-1zM119 71h1v1h-1zM124 71h2v1h-2zM2 72h2v1h-2zM8 72h1v1h-1zM119 72h1v1h-1zM124 72h2v1h-2zM2 73h2v1h-2zM8 73h1v1h-1zM119 73h1v1h-1zM124 73h2v1h-2zM2 74h2v1h-2zM8 74h1v1h-1zM119 74h1v1h-1zM124 74h2v1h-2zM2 75h2v1h-2zM8 75h1v1h-1zM119 75h1v1h-1zM124 75h2v1h-2zM2 76h2v1h-2zM8 76h1v1h-1zM119 76h1v1h-1zM124 76h2v1h-2zM2 77h2v1h-2zM8 77h1v1h-1zM119 77h1v1h-1zM124 77h2v1h-2zM50 119h28v1h-28zM50 124h12v1h-12zM67 124h11v1h-11zM50 125h13v1h-13zM66 125h12v1h-12z"/>
<path fill="#17141A" d="M54 14h1v1h-1zM50 18h1v1h-1zM79 26h1v1h-1zM51 30h1v1h-1zM50 31h1v1h-1zM76 31h1v1h-1zM50 32h1v1h-1zM76 32h1v1h-1zM50 33h2v1h-2zM48 34h2v1h-2zM48 35h1v1h-1zM51 41h1v1h-1zM52 42h1v1h-1zM54 46h1v1h-1zM57 48h3v1h-3zM60 49h1v1h-1zM61 50h2v1h-2zM66 50h1v1h-1zM50 51h1v1h-1zM53 52h1v1h-1zM47 53h1v1h-1zM44 56h1v1h-1zM81 56h1v1h-1zM44 59h1v1h-1zM82 59h1v1h-1zM91 59h1v1h-1zM52 61h1v1h-1zM72 61h1v1h-1zM83 61h1v1h-1zM28 62h1v1h-1zM53 62h1v1h-1zM67 62h1v1h-1zM27 63h1v1h-1zM55 63h1v1h-1zM57 63h1v1h-1zM80 63h1v1h-1zM97 63h1v1h-1zM56 64h1v1h-1zM60 64h1v1h-1zM64 64h1v1h-1zM29 65h1v1h-1zM89 66h1v1h-1zM32 67h1v1h-1zM38 67h1v1h-1zM89 67h1v1h-1zM31 68h1v1h-1zM33 68h1v1h-1zM39 68h1v1h-1zM89 68h1v1h-1zM34 69h1v1h-1zM39 69h1v1h-1zM34 70h1v1h-1zM64 70h1v1h-1zM24 71h1v1h-1zM27 71h3v1h-3zM35 71h1v1h-1zM89 71h1v1h-1zM92 71h1v1h-1zM24 72h1v1h-1zM27 72h2v1h-2zM89 72h1v1h-1zM32 73h1v1h-1zM40 73h1v1h-1zM88 73h2v1h-2zM94 73h1v1h-1zM89 74h1v1h-1zM93 74h1v1h-1zM38 75h1v1h-1zM42 76h1v1h-1zM63 76h1v1h-1zM91 76h1v1h-1zM93 78h1v1h-1zM91 80h1v1h-1zM89 81h1v1h-1zM89 82h2v1h-2zM43 85h1v1h-1zM65 86h1v1h-1zM45 89h1v1h-1zM87 89h2v1h-2zM66 90h1v1h-1zM86 90h1v1h-1zM92 90h1v1h-1zM87 92h2v1h-2zM89 93h1v1h-1zM46 94h1v1h-1zM31 95h2v1h-2zM48 96h1v1h-1zM68 96h1v1h-1zM81 96h1v1h-1zM29 97h1v1h-1zM36 97h1v1h-1zM42 97h1v1h-1zM69 97h1v1h-1zM78 97h1v1h-1zM28 98h1v1h-1zM34 98h1v1h-1zM42 98h3v1h-3zM63 98h1v1h-1zM71 98h3v1h-3zM31 99h1v1h-1zM54 99h1v1h-1zM56 99h1v1h-1zM65 99h1v1h-1zM80 99h1v1h-1zM62 100h1v1h-1zM71 100h1v1h-1zM58 101h1v1h-1zM75 101h1v1h-1zM28 102h2v1h-2zM28 103h1v1h-1zM84 115h1v1h-1zM83 117h1v1h-1zM90 117h1v1h-1zM76 118h1v1h-1zM84 118h1v1h-1zM91 118h2v1h-2z"/>
<path fill="#41342F" d="M56 13h1v1h-1zM61 13h1v1h-1zM67 13h2v1h-2zM59 14h1v1h-1zM60 15h1v1h-1zM62 16h1v1h-1zM70 16h1v1h-1zM53 17h2v1h-2zM60 17h1v1h-1zM73 17h1v1h-1zM74 18h1v1h-1zM52 19h1v1h-1zM69 19h1v1h-1zM75 19h1v1h-1zM52 20h1v1h-1zM49 21h1v1h-1zM51 21h2v1h-2zM76 21h1v1h-1zM48 23h1v1h-1zM48 24h1v1h-1zM50 24h1v1h-1zM78 25h1v1h-1zM49 26h2v1h-2zM74 26h3v1h-3zM78 26h1v1h-1zM60 27h1v1h-1zM50 28h1v1h-1zM50 29h1v1h-1zM67 29h1v1h-1zM69 29h1v1h-1zM49 30h1v1h-1zM58 30h1v1h-1zM68 30h1v1h-1zM48 31h1v1h-1zM75 32h1v1h-1zM75 34h1v1h-1zM75 35h1v1h-1zM75 36h1v1h-1zM50 38h1v1h-1zM60 39h1v1h-1zM59 40h1v1h-1zM74 41h1v1h-1zM57 45h2v1h-2zM69 45h1v1h-1zM55 47h1v1h-1zM54 48h1v1h-1zM56 48h1v1h-1zM54 49h1v1h-1zM54 50h1v1h-1zM54 51h1v1h-1zM54 52h1v1h-1zM77 59h1v1h-1zM68 60h1v1h-1zM70 60h1v1h-1zM77 60h1v1h-1zM59 61h1v1h-1zM67 61h1v1h-1zM69 61h1v1h-1zM58 62h1v1h-1zM66 64h1v1h-1zM65 66h1v1h-1zM60 67h1v1h-1zM70 67h1v1h-1zM64 68h1v1h-1zM92 69h1v1h-1zM90 74h1v1h-1zM90 75h1v1h-1zM102 77h1v1h-1zM94 88h1v1h-1zM28 90h1v1h-1zM96 91h1v1h-1zM70 92h1v1h-1zM70 93h1v1h-1zM88 94h1v1h-1zM85 96h1v1h-1zM105 96h1v1h-1zM98 97h1v1h-1zM85 101h1v1h-1zM100 101h1v1h-1zM103 101h1v1h-1zM86 104h1v1h-1zM107 104h1v1h-1zM105 107h1v1h-1zM105 111h1v1h-1zM87 115h1v1h-1zM94 115h1v1h-1z"/>
<path fill="#A88F00" d="M7 2h8v1h-8zM113 2h8v1h-8zM5 3h10v1h-10zM113 3h10v1h-10zM4 4h3v1h-3zM121 4h3v1h-3zM3 5h3v1h-3zM122 5h3v1h-3zM3 6h2v1h-2zM123 6h2v1h-2zM2 7h2v1h-2zM124 7h2v1h-2zM2 8h2v1h-2zM10 8h5v1h-5zM113 8h5v1h-5zM124 8h2v1h-2zM2 9h2v1h-2zM9 9h1v1h-1zM118 9h1v1h-1zM124 9h2v1h-2zM2 10h2v1h-2zM8 10h1v1h-1zM119 10h1v1h-1zM124 10h2v1h-2zM2 11h2v1h-2zM8 11h1v1h-1zM119 11h1v1h-1zM124 11h2v1h-2zM2 12h2v1h-2zM8 12h1v1h-1zM119 12h1v1h-1zM124 12h2v1h-2zM2 13h2v1h-2zM8 13h1v1h-1zM119 13h1v1h-1zM124 13h2v1h-2zM2 14h2v1h-2zM8 14h1v1h-1zM119 14h1v1h-1zM124 14h2v1h-2zM2 113h2v1h-2zM8 113h1v1h-1zM119 113h1v1h-1zM124 113h2v1h-2zM2 114h2v1h-2zM8 114h1v1h-1zM119 114h1v1h-1zM124 114h2v1h-2zM2 115h2v1h-2zM8 115h1v1h-1zM119 115h1v1h-1zM124 115h2v1h-2zM2 116h2v1h-2zM8 116h1v1h-1zM119 116h1v1h-1zM124 116h2v1h-2zM2 117h2v1h-2zM8 117h1v1h-1zM119 117h1v1h-1zM124 117h2v1h-2zM2 118h2v1h-2zM9 118h1v1h-1zM118 118h1v1h-1zM124 118h2v1h-2zM2 119h2v1h-2zM10 119h5v1h-5zM113 119h5v1h-5zM124 119h2v1h-2zM2 120h2v1h-2zM124 120h2v1h-2zM3 121h2v1h-2zM123 121h2v1h-2zM3 122h3v1h-3zM122 122h3v1h-3zM4 123h3v1h-3zM121 123h3v1h-3zM5 124h10v1h-10zM113 124h10v1h-10zM7 125h8v1h-8zM113 125h8v1h-8z"/>
<path fill="#EDB999" d="M60 20h6v1h-6zM60 21h8v1h-8zM59 22h10v1h-10zM60 23h11v1h-11zM60 24h11v1h-11zM60 25h11v1h-11zM61 26h5v1h-5zM72 26h1v1h-1zM63 27h2v1h-2zM73 27h1v1h-1zM63 28h1v1h-1zM73 28h1v1h-1zM64 29h1v1h-1zM72 29h2v1h-2zM64 30h1v1h-1zM73 30h1v1h-1zM64 31h1v1h-1zM72 31h2v1h-2zM64 32h1v1h-1zM71 32h3v1h-3zM58 33h1v1h-1zM66 33h1v1h-1zM69 33h5v1h-5zM58 34h1v1h-1zM64 34h1v1h-1zM67 34h7v1h-7zM68 35h6v1h-6zM68 36h6v1h-6zM68 37h5v1h-5zM69 38h4v1h-4zM71 39h1v1h-1zM66 41h1v1h-1zM67 42h2v1h-2zM67 43h1v1h-1zM70 43h1v1h-1zM66 44h1v1h-1zM70 51h1v1h-1zM68 52h3v1h-3zM65 53h6v1h-6zM64 54h7v1h-7zM64 55h6v1h-6zM60 56h1v1h-1zM64 56h5v1h-5zM60 57h2v1h-2zM64 57h4v1h-4zM61 58h7v1h-7zM61 59h4v1h-4zM61 60h4v1h-4zM61 61h3v1h-3zM62 62h2v1h-2zM94 92h1v1h-1zM92 94h1v1h-1zM89 96h1v1h-1zM88 97h2v1h-2zM87 98h5v1h-5zM86 99h7v1h-7zM95 99h8v1h-8zM86 100h12v1h-12zM86 101h12v1h-12zM87 102h11v1h-11zM87 103h8v1h-8zM99 103h5v1h-5zM87 104h8v1h-8zM99 104h3v1h-3zM103 104h1v1h-1zM88 105h10v1h-10zM103 105h1v1h-1zM88 106h11v1h-11zM88 107h7v1h-7zM98 107h3v1h-3zM88 108h7v1h-7zM98 108h3v1h-3zM89 109h9v1h-9zM90 110h7v1h-7zM91 111h4v1h-4zM98 111h1v1h-1z"/>
<path fill="#4F3C36" d="M60 14h1v1h-1zM69 14h1v1h-1zM59 15h1v1h-1zM61 15h2v1h-2zM64 15h1v1h-1zM66 15h1v1h-1zM61 16h1v1h-1zM72 16h1v1h-1zM58 17h1v1h-1zM63 17h1v1h-1zM72 17h1v1h-1zM70 18h1v1h-1zM73 18h1v1h-1zM51 19h1v1h-1zM57 19h1v1h-1zM71 19h1v1h-1zM74 19h1v1h-1zM72 20h1v1h-1zM75 20h1v1h-1zM75 21h1v1h-1zM76 24h1v1h-1zM50 25h1v1h-1zM75 25h1v1h-1zM77 25h1v1h-1zM58 27h1v1h-1zM76 27h1v1h-1zM76 28h1v1h-1zM57 29h3v1h-3zM70 29h1v1h-1zM76 29h2v1h-2zM48 32h1v1h-1zM52 35h1v1h-1zM52 38h1v1h-1zM62 38h1v1h-1zM66 38h1v1h-1zM52 39h1v1h-1zM53 40h1v1h-1zM58 40h1v1h-1zM53 41h1v1h-1zM56 45h1v1h-1zM68 46h1v1h-1zM62 47h1v1h-1zM67 47h1v1h-1zM62 48h2v1h-2zM66 48h1v1h-1zM57 49h1v1h-1zM69 49h1v1h-1zM67 50h1v1h-1zM71 57h1v1h-1zM70 58h1v1h-1zM45 59h1v1h-1zM54 59h1v1h-1zM69 59h1v1h-1zM55 60h1v1h-1zM78 60h1v1h-1zM80 60h1v1h-1zM57 61h1v1h-1zM80 61h1v1h-1zM82 61h1v1h-1zM68 62h1v1h-1zM67 63h1v1h-1zM63 64h1v1h-1zM63 70h1v1h-1zM93 97h1v1h-1zM105 98h1v1h-1zM106 99h1v1h-1zM84 100h1v1h-1zM101 101h2v1h-2zM103 102h1v1h-1zM105 102h1v1h-1zM100 106h1v1h-1zM106 108h1v1h-1zM106 109h1v1h-1zM106 110h1v1h-1zM88 115h6v1h-6z"/>
<path fill="#D69C81" d="M59 20h1v1h-1zM67 20h2v1h-2zM58 21h1v1h-1zM69 21h1v1h-1zM70 22h1v1h-1zM58 23h1v1h-1zM71 23h1v1h-1zM59 24h1v1h-1zM72 24h1v1h-1zM58 26h3v1h-3zM66 26h1v1h-1zM71 26h1v1h-1zM73 26h1v1h-1zM61 27h1v1h-1zM72 27h1v1h-1zM65 28h1v1h-1zM63 29h1v1h-1zM74 29h1v1h-1zM63 30h1v1h-1zM72 30h1v1h-1zM63 31h1v1h-1zM65 31h1v1h-1zM55 32h1v1h-1zM63 32h1v1h-1zM68 32h2v1h-2zM63 33h1v1h-1zM74 33h1v1h-1zM63 34h1v1h-1zM74 34h1v1h-1zM59 35h1v1h-1zM74 35h1v1h-1zM74 36h1v1h-1zM65 37h2v1h-2zM68 38h1v1h-1zM73 38h1v1h-1zM70 40h1v1h-1zM63 41h1v1h-1zM71 41h1v1h-1zM69 42h1v1h-1zM69 43h1v1h-1zM62 44h2v1h-2zM66 45h1v1h-1zM67 52h1v1h-1zM61 56h1v1h-1zM68 58h1v1h-1zM90 94h1v1h-1zM85 98h1v1h-1zM93 98h1v1h-1zM98 98h1v1h-1zM103 98h1v1h-1zM103 99h1v1h-1zM105 99h1v1h-1zM99 100h4v1h-4zM105 100h1v1h-1zM98 101h1v1h-1zM106 101h1v1h-1zM96 104h2v1h-2zM98 105h1v1h-1zM99 106h1v1h-1zM96 107h1v1h-1zM89 111h1v1h-1zM99 111h1v1h-1zM103 112h1v1h-1z"/>
<path fill="#E9B494" d="M59 21h1v1h-1zM68 21h1v1h-1zM58 22h1v1h-1zM69 22h1v1h-1zM59 23h1v1h-1zM71 24h1v1h-1zM71 25h2v1h-2zM62 27h1v1h-1zM64 28h1v1h-1zM74 30h1v1h-1zM74 31h1v1h-1zM66 32h1v1h-1zM74 32h1v1h-1zM56 33h2v1h-2zM59 33h1v1h-1zM67 33h2v1h-2zM57 34h1v1h-1zM59 34h1v1h-1zM65 34h1v1h-1zM67 35h1v1h-1zM67 36h1v1h-1zM67 37h1v1h-1zM73 37h1v1h-1zM70 39h1v1h-1zM71 40h1v1h-1zM66 42h1v1h-1zM66 43h1v1h-1zM65 44h1v1h-1zM67 44h1v1h-1zM70 50h2v1h-2zM69 51h1v1h-1zM71 51h1v1h-1zM71 52h1v1h-1zM63 55h1v1h-1zM70 55h1v1h-1zM63 56h1v1h-1zM69 56h1v1h-1zM62 57h2v1h-2zM68 57h1v1h-1zM60 58h1v1h-1zM60 59h1v1h-1zM65 59h2v1h-2zM64 61h1v1h-1zM95 91h1v1h-1zM92 93h2v1h-2zM91 94h1v1h-1zM90 95h1v1h-1zM88 96h1v1h-1zM86 98h1v1h-1zM93 99h1v1h-1zM86 102h1v1h-1zM98 102h1v1h-1zM102 104h1v1h-1zM100 105h3v1h-3zM95 107h1v1h-1zM95 108h1v1h-1zM101 108h3v1h-3zM88 109h1v1h-1zM98 109h1v1h-1zM100 109h3v1h-3zM89 110h1v1h-1zM97 110h1v1h-1zM98 112h4v1h-4z"/>
<path fill="#9F695B" d="M58 19h1v1h-1zM55 21h1v1h-1zM54 22h1v1h-1zM72 23h1v1h-1zM71 27h1v1h-1zM53 28h2v1h-2zM56 28h1v1h-1zM58 28h1v1h-1zM61 28h1v1h-1zM67 28h2v1h-2zM53 29h1v1h-1zM62 29h1v1h-1zM53 30h1v1h-1zM55 30h1v1h-1zM69 30h1v1h-1zM53 31h1v1h-1zM62 31h1v1h-1zM62 32h1v1h-1zM61 35h3v1h-3zM61 36h1v1h-1zM53 37h1v1h-1zM60 38h1v1h-1zM67 38h1v1h-1zM62 39h1v1h-1zM64 39h1v1h-1zM66 39h1v1h-1zM59 41h1v1h-1zM56 42h1v1h-1zM58 42h1v1h-1zM59 44h1v1h-1zM65 46h1v1h-1zM55 48h1v1h-1zM55 49h2v1h-2zM55 50h3v1h-3zM55 51h5v1h-5zM55 52h10v1h-10zM55 53h3v1h-3zM60 53h2v1h-2zM55 54h2v1h-2zM60 54h2v1h-2zM56 55h1v1h-1zM61 55h1v1h-1zM56 56h1v1h-1zM71 56h1v1h-1zM56 57h2v1h-2zM70 57h1v1h-1zM57 58h1v1h-1zM58 59h1v1h-1zM86 96h1v1h-1zM91 96h1v1h-1zM84 98h1v1h-1zM95 98h1v1h-1zM84 99h1v1h-1zM104 106h3v1h-3zM100 111h2v1h-2zM87 114h1v1h-1zM94 114h1v1h-1z"/>
<path fill="#D09074" d="M64 19h2v1h-2zM57 20h2v1h-2zM57 21h1v1h-1zM70 21h1v1h-1zM56 22h2v1h-2zM55 23h3v1h-3zM55 24h4v1h-4zM55 25h3v1h-3zM55 26h1v1h-1zM57 26h1v1h-1zM62 28h1v1h-1zM65 29h1v1h-1zM65 30h1v1h-1zM56 31h1v1h-1zM60 31h1v1h-1zM66 31h1v1h-1zM70 31h1v1h-1zM54 32h1v1h-1zM56 32h1v1h-1zM58 32h1v1h-1zM54 33h1v1h-1zM60 33h2v1h-2zM54 34h2v1h-2zM60 34h1v1h-1zM54 35h4v1h-4zM60 35h1v1h-1zM64 35h1v1h-1zM50 36h1v1h-1zM54 36h7v1h-7zM54 37h7v1h-7zM55 38h5v1h-5zM56 39h2v1h-2zM73 39h1v1h-1zM72 40h1v1h-1zM70 41h1v1h-1zM60 42h2v1h-2zM59 43h3v1h-3zM61 44h1v1h-1zM65 45h1v1h-1zM68 51h1v1h-1zM66 52h1v1h-1zM64 53h1v1h-1zM58 54h1v1h-1zM58 55h3v1h-3zM58 56h1v1h-1zM62 56h1v1h-1zM69 57h1v1h-1zM59 58h1v1h-1zM66 60h1v1h-1zM91 93h1v1h-1zM87 96h1v1h-1zM86 97h1v1h-1zM97 98h1v1h-1zM99 105h1v1h-1zM88 110h1v1h-1zM98 110h1v1h-1z"/>
<path fill="#E2A98C" d="M66 20h1v1h-1zM58 25h2v1h-2zM65 27h1v1h-1zM70 28h2v1h-2zM71 31h1v1h-1zM65 32h1v1h-1zM70 32h1v1h-1zM55 33h1v1h-1zM64 33h2v1h-2zM56 34h1v1h-1zM66 34h1v1h-1zM58 35h1v1h-1zM72 39h1v1h-1zM64 41h2v1h-2zM70 42h1v1h-1zM68 43h1v1h-1zM71 49h1v1h-1zM71 53h1v1h-1zM63 54h1v1h-1zM59 56h1v1h-1zM59 57h1v1h-1zM67 59h1v1h-1zM60 60h1v1h-1zM65 60h1v1h-1zM95 90h1v1h-1zM94 91h1v1h-1zM93 92h1v1h-1zM94 93h1v1h-1zM93 94h1v1h-1zM89 95h1v1h-1zM91 95h2v1h-2zM90 96h1v1h-1zM87 97h1v1h-1zM90 97h1v1h-1zM92 98h1v1h-1zM99 98h4v1h-4zM85 99h1v1h-1zM94 99h1v1h-1zM98 100h1v1h-1zM95 103h4v1h-4zM95 104h1v1h-1zM98 104h1v1h-1zM104 104h1v1h-1zM87 105h1v1h-1zM104 105h1v1h-1zM97 107h1v1h-1zM101 107h1v1h-1zM96 108h2v1h-2zM99 109h1v1h-1zM90 111h1v1h-1zM102 112h1v1h-1z"/>
<path fill="#8C5F51" d="M71 18h1v1h-1zM68 19h1v1h-1zM56 20h1v1h-1zM53 26h1v1h-1zM70 26h1v1h-1zM53 27h1v1h-1zM69 27h2v1h-2zM55 28h1v1h-1zM59 28h1v1h-1zM66 29h1v1h-1zM57 30h1v1h-1zM62 30h1v1h-1zM61 31h1v1h-1zM50 35h1v1h-1zM65 35h1v1h-1zM63 36h1v1h-1zM66 36h1v1h-1zM76 37h1v1h-1zM53 38h1v1h-1zM76 38h1v1h-1zM54 40h1v1h-1zM61 40h1v1h-1zM61 41h1v1h-1zM55 42h1v1h-1zM71 43h2v1h-2zM68 44h1v1h-1zM71 44h1v1h-1zM70 45h1v1h-1zM66 46h1v1h-1zM64 47h1v1h-1zM72 48h1v1h-1zM72 49h1v1h-1zM68 50h1v1h-1zM72 50h1v1h-1zM66 51h1v1h-1zM72 51h1v1h-1zM72 52h1v1h-1zM55 55h1v1h-1zM55 56h1v1h-1zM57 59h1v1h-1zM68 59h1v1h-1zM89 94h1v1h-1zM94 94h1v1h-1zM87 95h1v1h-1zM93 95h1v1h-1zM105 103h1v1h-1zM106 104h1v1h-1zM101 110h2v1h-2z"/>
<path fill="#AB7362" d="M59 19h5v1h-5zM54 23h1v1h-1zM54 24h1v1h-1zM54 25h1v1h-1zM73 25h1v1h-1zM54 27h1v1h-1zM66 27h1v1h-1zM57 28h1v1h-1zM54 29h1v1h-1zM59 30h1v1h-1zM55 31h1v1h-1zM59 31h1v1h-1zM67 31h2v1h-2zM53 32h1v1h-1zM61 32h1v1h-1zM53 33h1v1h-1zM62 33h1v1h-1zM53 34h1v1h-1zM53 35h1v1h-1zM53 36h1v1h-1zM50 37h1v1h-1zM62 37h1v1h-1zM54 39h1v1h-1zM63 39h1v1h-1zM55 40h1v1h-1zM60 40h1v1h-1zM73 40h1v1h-1zM68 41h1v1h-1zM72 41h1v1h-1zM63 42h2v1h-2zM67 45h1v1h-1zM64 46h1v1h-1zM59 53h1v1h-1zM62 53h1v1h-1zM57 54h1v1h-1zM57 55h1v1h-1zM57 56h1v1h-1zM69 58h1v1h-1zM67 60h1v1h-1zM63 63h1v1h-1zM95 92h1v1h-1zM85 97h1v1h-1zM94 98h1v1h-1zM104 98h1v1h-1zM106 100h1v1h-1zM86 103h1v1h-1zM103 107h1v1h-1zM105 108h1v1h-1z"/>
<path fill="#7F594B" d="M67 14h1v1h-1zM65 16h4v1h-4zM64 17h1v1h-1zM70 17h1v1h-1zM63 18h1v1h-1zM72 19h1v1h-1zM70 20h1v1h-1zM71 21h1v1h-1zM74 21h1v1h-1zM75 22h1v1h-1zM69 26h1v1h-1zM56 27h1v1h-1zM68 27h1v1h-1zM60 28h1v1h-1zM74 28h1v1h-1zM60 29h2v1h-2zM61 30h1v1h-1zM66 30h1v1h-1zM75 37h1v1h-1zM61 38h1v1h-1zM63 38h2v1h-2zM74 38h2v1h-2zM51 39h1v1h-1zM59 39h1v1h-1zM61 39h1v1h-1zM68 39h1v1h-1zM74 39h1v1h-1zM55 41h1v1h-1zM60 41h1v1h-1zM69 41h1v1h-1zM72 42h1v1h-1zM61 46h1v1h-1zM63 46h1v1h-1zM58 50h1v1h-1zM60 51h6v1h-6zM72 53h1v1h-1zM56 58h1v1h-1zM58 60h1v1h-1zM62 70h1v1h-1zM99 97h1v1h-1zM87 106h1v1h-1zM87 107h1v1h-1zM87 108h1v1h-1zM100 110h1v1h-1zM103 110h3v1h-3zM102 111h1v1h-1z"/>
<path fill="#55483D" d="M59 13h1v1h-1zM56 14h2v1h-2zM61 14h1v1h-1zM65 14h1v1h-1zM54 15h2v1h-2zM65 15h1v1h-1zM67 15h5v1h-5zM57 16h2v1h-2zM60 16h1v1h-1zM64 16h1v1h-1zM71 16h1v1h-1zM59 17h1v1h-1zM61 17h1v1h-1zM69 17h1v1h-1zM52 18h1v1h-1zM64 18h1v1h-1zM72 18h1v1h-1zM73 19h1v1h-1zM50 20h1v1h-1zM74 20h1v1h-1zM73 21h1v1h-1zM49 22h1v1h-1zM74 22h1v1h-1zM76 22h1v1h-1zM49 23h1v1h-1zM76 23h2v1h-2zM77 24h1v1h-1zM74 27h1v1h-1zM77 30h1v1h-1zM76 39h1v1h-1zM45 58h1v1h-1zM46 59h8v1h-8zM72 59h2v1h-2zM76 59h1v1h-1zM79 60h1v1h-1zM81 61h1v1h-1zM61 62h1v1h-1zM60 65h1v1h-1zM61 68h1v1h-1zM62 71h1v1h-1zM62 72h1v1h-1zM62 73h1v1h-1zM62 74h1v1h-1zM62 75h1v1h-1z"/>
<path fill="#764C44" d="M72 22h1v1h-1zM73 24h1v1h-1zM53 25h1v1h-1zM67 27h1v1h-1zM52 28h1v1h-1zM52 29h1v1h-1zM52 30h1v1h-1zM52 31h1v1h-1zM52 32h1v1h-1zM52 33h1v1h-1zM52 34h1v1h-1zM51 36h1v1h-1zM62 36h1v1h-1zM65 36h1v1h-1zM51 37h1v1h-1zM53 39h1v1h-1zM62 40h6v1h-6zM69 40h1v1h-1zM54 41h1v1h-1zM58 41h1v1h-1zM73 41h1v1h-1zM55 43h2v1h-2zM63 43h1v1h-1zM58 44h1v1h-1zM69 44h1v1h-1zM60 45h1v1h-1zM68 45h1v1h-1zM54 54h1v1h-1zM55 57h1v1h-1zM56 59h1v1h-1zM66 61h1v1h-1zM65 62h1v1h-1zM64 63h1v1h-1zM93 90h1v1h-1zM91 92h1v1h-1zM90 93h1v1h-1zM92 97h1v1h-1zM100 97h3v1h-3zM99 101h1v1h-1zM99 110h1v1h-1zM87 113h1v1h-1z"/>
<path fill="#BE806C" d="M66 19h1v1h-1zM55 22h1v1h-1zM55 27h1v1h-1zM66 28h1v1h-1zM55 29h1v1h-1zM59 32h1v1h-1zM67 32h1v1h-1zM76 35h1v1h-1zM64 36h1v1h-1zM76 36h1v1h-1zM64 37h1v1h-1zM74 37h1v1h-1zM51 38h1v1h-1zM58 39h1v1h-1zM65 39h1v1h-1zM69 39h1v1h-1zM57 40h1v1h-1zM68 40h1v1h-1zM56 41h1v1h-1zM57 42h1v1h-1zM65 42h1v1h-1zM62 43h1v1h-1zM61 45h1v1h-1zM62 54h1v1h-1zM62 55h1v1h-1zM58 57h1v1h-1zM59 59h1v1h-1zM65 61h1v1h-1zM64 62h1v1h-1zM94 89h1v1h-1zM91 97h1v1h-1zM103 100h1v1h-1zM101 102h2v1h-2zM105 104h1v1h-1zM105 105h1v1h-1zM105 109h1v1h-1zM88 112h3v1h-3zM88 113h7v1h-7zM88 114h5v1h-5z"/>
<path fill="#B77B67" d="M67 19h1v1h-1zM54 26h1v1h-1zM56 29h1v1h-1zM54 30h1v1h-1zM54 31h1v1h-1zM69 31h1v1h-1zM60 32h1v1h-1zM61 34h2v1h-2zM76 34h1v1h-1zM66 35h1v1h-1zM63 37h1v1h-1zM54 38h1v1h-1zM57 41h1v1h-1zM62 42h1v1h-1zM71 42h1v1h-1zM58 43h1v1h-1zM65 43h1v1h-1zM57 44h1v1h-1zM62 45h3v1h-3zM71 48h1v1h-1zM70 49h1v1h-1zM67 51h1v1h-1zM65 52h1v1h-1zM58 53h1v1h-1zM63 53h1v1h-1zM71 55h1v1h-1zM58 58h1v1h-1zM59 60h1v1h-1zM60 61h1v1h-1zM93 91h1v1h-1zM104 100h1v1h-1zM105 101h1v1h-1zM100 102h1v1h-1zM106 105h1v1h-1zM104 108h1v1h-1zM104 109h1v1h-1zM88 111h1v1h-1zM93 114h1v1h-1z"/>
<path fill="#C68A73" d="M69 20h1v1h-1zM56 21h1v1h-1zM71 22h1v1h-1zM56 26h1v1h-1zM69 28h1v1h-1zM72 28h1v1h-1zM71 29h1v1h-1zM70 30h1v1h-1zM57 31h1v1h-1zM57 32h1v1h-1zM61 37h1v1h-1zM55 39h1v1h-1zM56 40h1v1h-1zM62 41h1v1h-1zM67 41h1v1h-1zM59 42h1v1h-1zM57 43h1v1h-1zM60 44h1v1h-1zM64 44h1v1h-1zM70 44h1v1h-1zM69 50h1v1h-1zM59 54h1v1h-1zM71 54h1v1h-1zM70 56h1v1h-1zM95 89h1v1h-1zM94 90h1v1h-1zM92 92h1v1h-1zM88 95h1v1h-1zM96 98h1v1h-1zM104 99h1v1h-1zM85 100h1v1h-1zM99 102h1v1h-1zM104 103h1v1h-1zM102 107h1v1h-1zM103 109h1v1h-1zM91 112h4v1h-4zM104 112h1v1h-1z"/>
<path fill="#61423B" d="M58 14h1v1h-1zM57 27h1v1h-1zM56 30h1v1h-1zM58 31h1v1h-1zM77 34h1v1h-1zM51 35h1v1h-1zM77 35h1v1h-1zM52 36h1v1h-1zM77 36h1v1h-1zM74 40h1v1h-1zM54 42h1v1h-1zM54 43h1v1h-1zM73 43h1v1h-1zM55 44h2v1h-2zM72 44h1v1h-1zM59 45h1v1h-1zM62 46h1v1h-1zM61 47h1v1h-1zM66 47h1v1h-1zM59 50h1v1h-1zM54 53h1v1h-1zM72 54h1v1h-1zM54 55h1v1h-1zM72 55h1v1h-1zM62 63h1v1h-1zM92 96h1v1h-1zM103 97h1v1h-1zM104 101h1v1h-1zM103 106h1v1h-1zM104 107h1v1h-1zM87 110h1v1h-1zM87 111h1v1h-1zM103 111h2v1h-2zM87 112h1v1h-1zM105 112h1v1h-1z"/>
<path fill="#6B5146" d="M60 13h1v1h-1zM66 14h1v1h-1zM68 14h1v1h-1zM56 15h1v1h-1zM69 16h1v1h-1zM65 17h1v1h-1zM71 17h1v1h-1zM73 20h1v1h-1zM75 23h1v1h-1zM67 26h2v1h-2zM60 30h1v1h-1zM71 30h1v1h-1zM65 38h1v1h-1zM67 39h1v1h-1zM73 42h1v1h-1zM64 43h1v1h-1zM71 45h1v1h-1zM67 46h1v1h-1zM63 47h1v1h-1zM65 47h1v1h-1zM72 47h1v1h-1zM65 48h1v1h-1zM44 58h1v1h-1zM74 59h2v1h-2zM60 66h1v1h-1zM64 67h1v1h-1zM62 69h2v1h-2zM95 93h1v1h-1zM87 109h1v1h-1z"/>
<path fill="#4894FE" d="M63 2h3v1h-3zM63 3h2v1h-2zM63 4h1v1h-1zM113 12h3v1h-3zM113 13h2v1h-2zM113 14h1v1h-1z"/>
<path fill="#BB35A4" d="M12 12h3v1h-3zM12 13h2v1h-2zM12 14h1v1h-1zM123 63h3v1h-3zM123 64h2v1h-2zM123 65h1v1h-1z"/>
<path fill="#73B75D" d="M2 63h3v1h-3zM2 64h2v1h-2zM2 65h1v1h-1zM12 113h3v1h-3zM12 114h2v1h-2zM12 115h1v1h-1z"/>
<path fill="#E6AD10" d="M113 113h3v1h-3zM113 114h2v1h-2zM113 115h1v1h-1zM63 123h3v1h-3zM63 124h2v1h-2zM63 125h1v1h-1z"/>
<path fill="#1B44B1" d="M65 3h1v1h-1zM64 4h2v1h-2zM115 13h1v1h-1zM114 14h2v1h-2z"/>
<path fill="#742774" d="M14 13h1v1h-1zM13 14h2v1h-2zM125 64h1v1h-1zM124 65h2v1h-2z"/>
<path fill="#1F9A8A" d="M4 64h1v1h-1zM3 65h2v1h-2zM14 114h1v1h-1zM13 115h2v1h-2z"/>
<path fill="#C9870E" d="M115 114h1v1h-1zM114 115h2v1h-2zM65 124h1v1h-1zM64 125h2v1h-2z"/>
</svg>
