<svg xmlns="http://www.w3.org/2000/svg" viewBox="0 0 32 32" width="32" height="32" shape-rendering="crispEdges">
  <path fill="#BFA97E" d="M5 0h2v1h-2zM8 0h1v1h-1zM12 0h2v1h-2zM15 0h2v1h-2zM21 0h2v1h-2zM25 0h2v1h-2zM3 1h2v1h-2zM6 1h2v1h-2zM9 1h1v1h-1zM11 1h1v1h-1zM14 1h1v1h-1zM17 1h2v1h-2zM20 1h1v1h-1zM23 1h2v1h-2zM27 1h2v1h-2zM2 2h1v1h-1zM10 2h1v1h-1zM19 2h1v1h-1zM23 2h1v1h-1zM29 2h1v1h-1zM1 3h1v1h-1zM29 3h2v1h-2zM1 4h2v1h-2zM31 4h1v1h-1zM0 5h1v1h-1zM30 5h2v1h-2zM1 6h1v1h-1zM30 6h1v1h-1zM0 7h1v1h-1zM31 7h1v1h-1zM0 8h1v1h-1zM30 8h1v1h-1zM1 9h1v1h-1zM31 9h1v1h-1zM1 10h1v1h-1zM31 10h1v1h-1zM2 11h1v1h-1zM30 11h1v1h-1zM1 12h1v1h-1zM31 12h1v1h-1zM0 13h2v1h-2zM30 13h1v1h-1zM0 14h1v1h-1zM29 14h1v1h-1zM1 15h2v1h-2zM30 15h1v1h-1zM0 16h1v1h-1zM30 16h2v1h-2zM0 17h1v1h-1zM31 17h1v1h-1zM1 18h1v1h-1zM30 18h1v1h-1zM0 19h1v1h-1zM30 19h1v1h-1zM1 20h1v1h-1zM31 20h1v1h-1zM2 21h1v1h-1zM31 21h1v1h-1zM1 22h1v1h-1zM30 22h1v1h-1zM0 23h1v1h-1zM31 23h1v1h-1zM0 24h2v1h-2zM30 24h1v1h-1zM1 25h1v1h-1zM31 25h1v1h-1zM0 26h1v1h-1zM30 26h1v1h-1zM0 27h1v1h-1zM30 27h2v1h-2zM1 28h1v1h-1zM30 28h1v1h-1zM2 29h1v1h-1zM12 29h1v1h-1zM20 29h1v1h-1zM29 29h1v1h-1zM3 30h3v1h-3zM8 30h1v1h-1zM11 30h1v1h-1zM13 30h1v1h-1zM15 30h2v1h-2zM19 30h1v1h-1zM21 30h1v1h-1zM25 30h2v1h-2zM28 30h1v1h-1zM4 31h1v1h-1zM6 31h2v1h-2zM9 31h2v1h-2zM14 31h2v1h-2zM17 31h2v1h-2zM22 31h3v1h-3zM26 31h2v1h-2z"/>
  <path fill="#E2D6B8" d="M5 1h1v1h-1zM8 1h1v1h-1zM12 1h2v1h-2zM15 1h2v1h-2zM21 1h2v1h-2zM25 1h2v1h-2zM3 2h2v1h-2zM6 2h2v1h-2zM9 2h1v1h-1zM11 2h2v1h-2zM14 2h1v1h-1zM17 2h2v1h-2zM20 2h1v1h-1zM24 2h2v1h-2zM27 2h2v1h-2zM2 3h1v1h-1zM4 3h1v1h-1zM7 3h1v1h-1zM9 3h2v1h-2zM18 3h3v1h-3zM23 3h1v1h-1zM25 3h1v1h-1zM9 4h2v1h-2zM20 4h1v1h-1zM29 4h2v1h-2zM1 5h2v1h-2zM2 6h2v1h-2zM29 6h1v1h-1zM1 7h1v1h-1zM30 7h1v1h-1zM1 8h1v1h-1zM28 8h2v1h-2zM2 9h1v1h-1zM28 9h3v1h-3zM2 10h1v1h-1zM29 10h2v1h-2zM3 11h1v1h-1zM29 11h1v1h-1zM2 12h2v1h-2zM30 12h1v1h-1zM28 13h2v1h-2zM1 14h1v1h-1zM3 14h1v1h-1zM28 14h1v1h-1zM29 15h1v1h-1zM1 16h2v1h-2zM1 17h1v1h-1zM30 17h1v1h-1zM2 18h2v1h-2zM27 18h3v1h-3zM1 19h1v1h-1zM28 19h2v1h-2zM2 20h1v1h-1zM28 20h3v1h-3zM3 21h1v1h-1zM29 21h2v1h-2zM2 22h1v1h-1zM29 22h1v1h-1zM1 23h1v1h-1zM30 23h1v1h-1zM28 24h2v1h-2zM2 25h1v1h-1zM29 25h2v1h-2zM1 26h2v1h-2zM20 26h1v1h-1zM29 26h1v1h-1zM1 27h2v1h-2zM2 28h2v1h-2zM5 28h1v1h-1zM8 28h1v1h-1zM10 28h3v1h-3zM16 28h1v1h-1zM19 28h2v1h-2zM25 28h1v1h-1zM29 28h1v1h-1zM3 29h1v1h-1zM5 29h2v1h-2zM8 29h2v1h-2zM11 29h1v1h-1zM13 29h2v1h-2zM16 29h2v1h-2zM19 29h1v1h-1zM21 29h2v1h-2zM25 29h1v1h-1zM28 29h1v1h-1zM6 30h2v1h-2zM9 30h2v1h-2zM14 30h1v1h-1zM17 30h2v1h-2zM22 30h3v1h-3zM27 30h1v1h-1z"/>
  <path fill="#F2EBD9" d="M5 2h1v1h-1zM8 2h1v1h-1zM13 2h1v1h-1zM15 2h2v1h-2zM21 2h2v1h-2zM26 2h1v1h-1zM3 3h1v1h-1zM5 3h2v1h-2zM8 3h1v1h-1zM11 3h7v1h-7zM21 3h2v1h-2zM24 3h1v1h-1zM26 3h3v1h-3zM3 4h6v1h-6zM11 4h9v1h-9zM21 4h8v1h-8zM3 5h27v1h-27zM4 6h25v1h-25zM2 7h28v1h-28zM2 8h26v1h-26zM3 9h25v1h-25zM3 10h26v1h-26zM4 11h25v1h-25zM4 12h26v1h-26zM2 13h26v1h-26zM2 14h1v1h-1zM4 14h24v1h-24zM3 15h26v1h-26zM3 16h27v1h-27zM2 17h28v1h-28zM4 18h23v1h-23zM2 19h26v1h-26zM3 20h25v1h-25zM4 21h25v1h-25zM3 22h26v1h-26zM2 23h28v1h-28zM2 24h26v1h-26zM3 25h26v1h-26zM3 26h17v1h-17zM21 26h8v1h-8zM3 27h27v1h-27zM4 28h1v1h-1zM6 28h2v1h-2zM9 28h1v1h-1zM13 28h3v1h-3zM17 28h2v1h-2zM21 28h4v1h-4zM26 28h3v1h-3zM4 29h1v1h-1zM7 29h1v1h-1zM10 29h1v1h-1zM15 29h1v1h-1zM18 29h1v1h-1zM23 29h2v1h-2zM26 29h2v1h-2z"/>
</svg>
