<svg xmlns="http://www.w3.org/2000/svg" viewBox="0 0 16 16" width="16" height="16" shape-rendering="crispEdges">
  <path fill="#605B4F" d="M6 2h4v1h-4zM2 3h5v1h-5zM9 3h5v1h-5zM2 4h1v1h-1zM6 4h4v1h-4zM13 4h1v1h-1zM2 5h1v1h-1zM13 5h1v1h-1zM2 6h1v1h-1zM4 6h2v1h-2zM7 6h5v1h-5zM13 6h1v1h-1zM2 7h1v1h-1zM13 7h1v1h-1zM2 8h1v1h-1zM4 8h2v1h-2zM7 8h5v1h-5zM13 8h1v1h-1zM2 9h1v1h-1zM13 9h1v1h-1zM2 10h1v1h-1zM4 10h2v1h-2zM7 10h3v1h-3zM13 10h1v1h-1zM2 11h1v1h-1zM13 11h1v1h-1zM2 12h12v1h-12z"/>
  <path fill="#FAF6EC" d="M7 3h2v1h-2z"/>
  <path fill="#D5CBB0" d="M3 4h3v1h-3zM10 4h3v1h-3zM3 5h10v1h-10zM3 6h1v1h-1zM6 6h1v1h-1zM12 6h1v1h-1zM3 7h10v1h-10zM3 8h1v1h-1zM6 8h1v1h-1zM12 8h1v1h-1zM3 9h10v1h-10zM3 10h1v1h-1zM6 10h1v1h-1zM10 10h3v1h-3zM3 11h10v1h-10z"/>
</svg>
